<?xml version="1.0" encoding="utf-8"?><svg xmlns="http://www.w3.org/2000/svg" xmlns:xlink="http://www.w3.org/1999/xlink"><symbol viewBox="0 0 13.354 13.354" id="arrow" xmlns="http://www.w3.org/2000/svg"><path d="M-.001 12.739L11.867.87H.305V0h13.049v13.047h-.87V1.485L.613 13.355z"/></symbol><symbol viewBox="0 0 128 128" id="code-pen"><path d="M125.571 39.926l-58.5-39c-1.997-1.23-4.128-1.24-6.142 0l-58.5 39C.929 40.926 0 42.712 0 44.497v39c0 1.786.929 3.572 2.429 4.571l58.5 39.006c1.996 1.229 4.128 1.24 6.142 0l58.5-39.006c1.5-.999 2.429-2.785 2.429-4.57v-39c0-1.786-.929-3.572-2.429-4.572zm-56.07-24.144l43.07 28.715-19.214 12.858L69.5 41.425V15.784zm-11.001 0v25.644L34.642 57.354 15.428 44.498 58.5 15.782zm-47.5 39l13.786 9.215L11 73.212v-18.43zm47.5 57.43L15.428 83.497 34.642 70.64 58.5 86.569v25.643zM64 76.997l-19.428-13 19.428-13 19.428 13-19.428 13zm5.5 35.215V86.569L93.357 70.64l19.214 12.857-43.07 28.715zm47.5-39l-13.786-9.215L117 54.783v18.429z"/></symbol><symbol viewBox="0 0 25 17" id="icon-behance" xmlns="http://www.w3.org/2000/svg"><path d="M7.236.001a8.374 8.374 0 012.01.207 4.485 4.485 0 011.551.664c.435.316.779.74.998 1.231.25.604.372 1.253.355 1.907a3.659 3.659 0 01-.527 2.042 3.877 3.877 0 01-1.566 1.34 3.74 3.74 0 012.112 1.498c.483.778.726 1.682.698 2.598a4.796 4.796 0 01-.441 2.117 4.124 4.124 0 01-1.211 1.471 5.342 5.342 0 01-1.753.841 7.464 7.464 0 01-2.009.27H0V.001h7.236zm-.43 6.547a2.346 2.346 0 001.482-.45 1.762 1.762 0 00.584-1.472c.014-.32-.05-.639-.186-.929a1.347 1.347 0 00-.515-.555 1.934 1.934 0 00-.74-.286 4.164 4.164 0 00-.87-.075H3.376v3.781h3.43v-.014zm.186 6.89c.321.005.641-.03.954-.102.286-.063.557-.18.798-.346.237-.165.428-.387.556-.645.148-.33.217-.69.199-1.051a2.166 2.166 0 00-.67-1.786 2.722 2.722 0 00-1.766-.526H3.376v4.457h3.616zm10.684-.058a2.666 2.666 0 001.98.705 2.607 2.607 0 001.595-.495 2.04 2.04 0 00.812-1.032h2.693a5.303 5.303 0 01-1.98 3.018 5.506 5.506 0 01-3.22.916 6.085 6.085 0 01-2.38-.451 5.081 5.081 0 01-1.794-1.261 5.885 5.885 0 01-1.125-1.952 7.345 7.345 0 01-.399-2.493 7.207 7.207 0 01.413-2.447 5.52 5.52 0 015.3-3.754 5.075 5.075 0 012.474.586 5.195 5.195 0 011.738 1.547c.465.672.799 1.426.983 2.222.202.855.274 1.736.213 2.612h-8.02a3.19 3.19 0 00.717 2.278zm3.519-6.156a2.22 2.22 0 00-1.724-.646 2.433 2.433 0 00-1.21.27 2.594 2.594 0 00-.77.646 2.486 2.486 0 00-.412.825 3.422 3.422 0 00-.143.765h4.968a3.368 3.368 0 00-.707-1.86h-.002zm1.325-6.142h-6.224v1.591h6.225V1.082z"/></symbol><symbol viewBox="0 0 24 24" id="icon-blank" xmlns="http://www.w3.org/2000/svg"><path d="M21 13v10H0V4h12v2H2v15h17v-8zm3-12H13.012l4.035 4-6.977 7.07 2.828 2.828 6.977-7.07L24 12z"/></symbol><symbol viewBox="0 0 128 128" id="icon-css"><path d="M8.76 1l10.055 112.883 45.118 12.58 45.244-12.626L119.24 1H8.76zm89.591 25.862l-3.347 37.605.01.203-.014.467v-.004l-2.378 26.294-.262 2.336L64 101.607v.001l-.022.019-28.311-7.888L33.75 72h13.883l.985 11.054 15.386 4.17-.004.008v-.002l15.443-4.229L81.075 65H48.792l-.277-3.043-.631-7.129L47.553 51h34.749l1.264-14H30.64l-.277-3.041-.63-7.131L29.401 23h69.281l-.331 3.862z"/></symbol><symbol viewBox="0 0 22 22" id="icon-dr" xmlns="http://www.w3.org/2000/svg"><path fill-rule="evenodd" clip-rule="evenodd" d="M10.833 0C4.853 0 0 4.853 0 10.833c0 5.981 4.853 10.834 10.833 10.834 5.97 0 10.834-4.853 10.834-10.834C21.667 4.853 16.802 0 10.833 0zm7.156 4.994a9.211 9.211 0 012.091 5.757c-.305-.059-3.36-.681-6.438-.294-.071-.152-.13-.317-.2-.481-.188-.447-.4-.905-.611-1.34 3.407-1.386 4.958-3.384 5.158-3.642zm-7.156-3.396c2.35 0 4.5.881 6.134 2.326-.165.235-1.563 2.104-4.853 3.337-1.516-2.784-3.196-5.064-3.454-5.416a9.41 9.41 0 012.173-.247zm-3.936.87a58.39 58.39 0 013.431 5.346C6.004 8.965 2.185 8.942 1.774 8.942a9.3 9.3 0 015.123-6.475zm-5.323 8.377v-.282c.4.012 4.888.07 9.506-1.316.27.517.517 1.046.752 1.575-.117.035-.247.07-.364.105-4.77 1.54-7.309 5.746-7.52 6.099a9.232 9.232 0 01-2.374-6.18zm9.26 9.247a9.189 9.189 0 01-5.676-1.95c.165-.341 2.045-3.96 7.262-5.781.023-.012.035-.012.058-.024 1.305 3.373 1.833 6.204 1.974 7.015a9.101 9.101 0 01-3.619.74zm5.158-1.586c-.095-.564-.588-3.267-1.798-6.592 2.902-.458 5.44.294 5.757.4a9.174 9.174 0 01-3.96 6.192z"/></symbol><symbol viewBox="0 0 18 18" id="icon-g" xmlns="http://www.w3.org/2000/svg"><g clip-path="url(#clip0_979_9931)"><path fill-rule="evenodd" clip-rule="evenodd" d="M12.633 4.91A4.89 4.89 0 009.18 3.563c-2.348 0-4.342 1.584-5.053 3.717a5.391 5.391 0 000 3.446h.003c.715 2.13 2.705 3.713 5.053 3.713 1.212 0 2.253-.31 3.06-.857v-.003a4.166 4.166 0 001.798-2.734H9.18V7.378h8.49c.105.602.155 1.217.155 1.829 0 2.737-.979 5.051-2.68 6.619v.001C13.656 17.203 11.608 18 9.18 18a9.001 9.001 0 01-8.043-4.957 9.008 9.008 0 010-8.083A8.998 8.998 0 019.18 0a8.65 8.65 0 016.022 2.341l-2.57 2.57z"/></g></symbol><symbol viewBox="0 0 128 128" id="icon-git"><path d="M124.742 58.378L69.625 3.264c-3.172-3.174-8.32-3.174-11.497 0L46.685 14.71l14.518 14.518c3.375-1.139 7.243-.375 9.932 2.314a9.66 9.66 0 012.293 9.993L87.42 55.529c3.385-1.167 7.292-.413 9.994 2.295 3.78 3.777 3.78 9.9 0 13.679a9.673 9.673 0 01-13.683 0 9.677 9.677 0 01-2.105-10.521L68.578 47.933l-.002 34.341a9.708 9.708 0 012.559 1.828c3.779 3.777 3.779 9.898 0 13.683-3.779 3.777-9.904 3.777-13.679 0-3.778-3.784-4.088-9.905-.311-13.683.934-.933 1.855-1.638 2.855-2.11V47.333c-1-.472-1.92-1.172-2.856-2.111-2.861-2.86-3.396-7.06-1.928-10.576L40.983 20.333 3.229 58.123c-3.175 3.177-3.155 8.325.02 11.5l55.126 55.114c3.173 3.174 8.325 3.174 11.503 0l54.86-54.858c3.175-3.176 3.178-8.327.004-11.501z"/></symbol><symbol viewBox="0 0 128 128" id="icon-github"><path fill-rule="evenodd" clip-rule="evenodd" d="M64 5.103c-33.347 0-60.388 27.035-60.388 60.388 0 26.682 17.303 49.317 41.297 57.303 3.017.56 4.125-1.31 4.125-2.905 0-1.44-.056-6.197-.082-11.243-16.8 3.653-20.345-7.125-20.345-7.125-2.747-6.98-6.705-8.836-6.705-8.836-5.48-3.748.413-3.67.413-3.67 6.063.425 9.257 6.223 9.257 6.223 5.386 9.23 14.127 6.562 17.573 5.02.542-3.903 2.107-6.568 3.834-8.076-13.413-1.525-27.514-6.704-27.514-29.843 0-6.593 2.36-11.98 6.223-16.21-.628-1.52-2.695-7.662.584-15.98 0 0 5.07-1.623 16.61 6.19C53.7 35 58.867 34.327 64 34.304c5.13.023 10.3.694 15.127 2.033 11.526-7.813 16.59-6.19 16.59-6.19 3.287 8.317 1.22 14.46.593 15.98 3.872 4.23 6.215 9.617 6.215 16.21 0 23.194-14.127 28.3-27.574 29.796 2.167 1.874 4.097 5.55 4.097 11.183 0 8.08-.07 14.583-.07 16.572 0 1.607 1.088 3.49 4.148 2.897 23.98-7.994 41.263-30.622 41.263-57.294C124.388 32.14 97.35 5.104 64 5.104z"/><path d="M26.484 91.806c-.133.3-.605.39-1.035.185-.44-.196-.685-.605-.543-.906.13-.31.603-.395 1.04-.188.44.197.69.61.537.91zm2.446 2.729c-.287.267-.85.143-1.232-.28-.396-.42-.47-.983-.177-1.254.298-.266.844-.14 1.24.28.394.426.472.984.17 1.255zm2.382 3.477c-.37.258-.976.017-1.35-.52-.37-.538-.37-1.183.01-1.44.373-.258.97-.025 1.35.507.368.545.368 1.19-.01 1.452zm3.261 3.361c-.33.365-1.036.267-1.552-.23-.527-.487-.674-1.18-.343-1.544.336-.366 1.045-.264 1.564.23.527.486.686 1.18.333 1.543zm4.5 1.951c-.147.473-.825.688-1.51.486-.683-.207-1.13-.76-.99-1.238.14-.477.823-.7 1.512-.485.683.206 1.13.756.988 1.237zm4.943.361c.017.498-.563.91-1.28.92-.723.017-1.308-.387-1.315-.877 0-.503.568-.91 1.29-.924.717-.013 1.306.387 1.306.88zm4.598-.782c.086.485-.413.984-1.126 1.117-.7.13-1.35-.172-1.44-.653-.086-.498.422-.997 1.122-1.126.714-.123 1.354.17 1.444.663zm0 0"/></symbol><symbol viewBox="0 0 128 128" id="icon-gulp"><path clip-rule="evenodd" d="M36.965 35.459c.877 9.232 1.747 18.412 2.637 27.798 1.451-2.495 2.501-4.888 4.085-6.848 1.475-1.826 3.334-3.511 5.357-4.678 2.641-1.524 6.104-.089 6.96 2.614.23.725-.319 1.697-.511 2.556-.646-.341-1.479-.529-1.901-1.051-1.793-2.217-2.873-2.479-4.856-.563-3.699 3.576-5.779 8.056-6.573 13.091-.153.974.456 2.067.713 3.105 1.011-.348 2.185-.476 3.002-1.084 2.656-1.977 4.302-4.666 5.21-7.88.197-.696 1.265-1.145 1.933-1.708.32.658 1.05 1.433.897 1.954a373.814 373.814 0 01-4.536 14.429c-.162.484-1.051.725-1.604 1.079-.223-.636-.692-1.302-.617-1.901.168-1.358.605-2.683.91-3.927l-7.24 3.333c.405 4.622.825 9.807 1.323 14.985.382 3.954 1.029 4.978 4.923 5.728 4.544.875 9.173 1.434 13.792 1.774a60.391 60.391 0 0020.23-1.904c2.472-.664 3.458-2.29 3.635-4.717.162-2.235.524-4.456.775-6.685.493-4.391.972-8.783 1.476-13.358-1.667 1.056-2.978 2.238-4.511 2.739-1.116.365-2.524-.169-3.803-.303.245-1.174.23-2.497.796-3.487.922-1.618 2.224-3.021 3.364-4.515l-.491-.591c-.817.483-1.832.8-2.413 1.485-1.182 1.394-2.339 2.886-3.13 4.52-1.324 2.735-2.333 5.622-3.518 8.426-.515 1.216-.959 3.076-2.684 2.366-1.845-.761-.547-2.386-.114-3.542.689-1.844 1.599-3.606 2.215-4.962-1.746.208-3.516.459-5.294.614-.752.064-1.646-.348-2.261-.07-2.045.924-3.341.553-3.766-1.711-.947.615-1.749 1.448-2.694 1.672-1.147.273-2.703.452-3.543-.121-.673-.459-.918-2.184-.688-3.196.457-2.012 1.311-3.946 2.122-5.859.502-1.185 1.007-3.077 2.701-2.253 1.674.813.154 2.185-.232 3.286-.599 1.702-1.209 3.401-1.813 5.101l.96.58c.914-.794 2.053-1.441 2.693-2.415 1.048-1.592 1.681-3.452 2.673-5.086.411-.677 1.296-1.065 1.967-1.584.136.862.462 1.748.354 2.58-.107.841-.698 1.61-.981 2.442-.425 1.246-.768 2.52-1.2 3.969 2.043.078 2.918-.782 3.495-2.299 1.826-4.793 3.672-9.581 5.679-14.3.343-.808 1.509-1.264 2.296-1.884.091.974.525 2.078.216 2.899-1.645 4.349-3.492 8.62-5.228 12.935-.293.727-.387 1.534-.572 2.304 3.059-1.375 5.612-2.895 6.544-6.146.228-.79 1.162-1.377 1.771-2.058l1.416 1.5c.43-.362.824-.774 1.291-1.075 1.47-.947 3.053-1.782 4.603-.315 1.604 1.517.39 2.995-.448 4.307-.912 1.431-2.029 2.73-3.057 4.086 2.312-1.49 5.469-2.158 5.889-5.378 1.024-7.865 1.924-15.746 2.837-23.625.271-2.332.416-4.679.627-7.109-18.21 4.409-36.029 4.436-54.088-.069zm7.816 61.369c.877 2.317 2.209 4.593 2.558 7.011.737 5.147.924 10.372 1.446 15.554.076.755.565 1.792 1.175 2.124 8.98 4.88 18.047 5.726 27.209.389 1.367-.796 1.62-1.847 1.797-3.325.857-7.181-1.051-14.798 3.54-21.56-12.856 3.189-25.403 3.288-37.725-.193zm30.991-60.08c4.362-.421 8.671-1.445 12.985-2.291.813-.159 1.535-.778 2.299-1.185-1.007-.885-1.878-1.311-2.788-1.418-4.53-.535-9.076-.947-13.603-1.508-.684-.085-1.905-.929-1.854-1.083 1.321-3.98 1.256-8.485 4.254-11.839 3.789-4.24 7.617-8.443 11.416-12.648-2.826-3.04-2.864-3.044-5.425-.383-1.448 1.504-2.771 3.15-4.342 4.512-5.813 5.038-9.896 11.005-10.692 18.872-.183 1.805-1.174 2.457-3.069 2.485-6.256.091-12.519.263-18.761.674-3.093.203-6.148.997-9.221 1.523l-.028 1.149c1.923.593 3.809 1.372 5.773 1.749 10.944 2.098 21.991 2.458 33.056 1.391zM72.276 34c-2.477 2-4.524 2-6.501 0h6.501z"/></symbol><symbol viewBox="0 0 128 128" id="icon-html"><path d="M9.032 2l10.005 112.093 44.896 12.401 45.02-12.387L118.968 2H9.032zm89.126 26.539l-.627 7.172L97.255 39H44.59l1.257 14h50.156l-.336 3.471-3.233 36.119-.238 2.27L64 102.609v.002l-.034.018-28.177-7.423L33.876 74h13.815l.979 10.919L63.957 89H64v-.546l15.355-3.875L80.959 67H33.261l-3.383-38.117L29.549 25h68.939l-.33 3.539z"/></symbol><symbol viewBox="0 0 17 17" id="icon-in" xmlns="http://www.w3.org/2000/svg"><path d="M3.762 5.852H.28V17h3.483V5.852zm.314-3.832A2.007 2.007 0 002.083 0H2.02a2.02 2.02 0 100 4.041 2.006 2.006 0 002.056-1.958V2.02zM17 10.228c0-3.351-2.132-4.654-4.25-4.654A3.97 3.97 0 009.225 7.37h-.098V5.852H5.852V17h3.484v-5.93a2.313 2.313 0 012.09-2.493h.133c1.107 0 1.93.696 1.93 2.452V17h3.483L17 10.228z"/></symbol><symbol viewBox="0 0 128 128" id="icon-js"><path d="M2 1v125h125V1H2zm66.119 106.513c-1.845 3.749-5.367 6.212-9.448 7.401-6.271 1.44-12.269.619-16.731-2.059-2.986-1.832-5.318-4.652-6.901-7.901l9.52-5.83c.083.035.333.487.667 1.071 1.214 2.034 2.261 3.474 4.319 4.485 2.022.69 6.461 1.131 8.175-2.427 1.047-1.81.714-7.628.714-14.065C58.433 78.073 58.48 68 58.48 58h11.709c0 11 .06 21.418 0 32.152.025 6.58.596 12.446-2.07 17.361zm48.574-3.308c-4.07 13.922-26.762 14.374-35.83 5.176-1.916-2.165-3.117-3.296-4.26-5.795 4.819-2.772 4.819-2.772 9.508-5.485 2.547 3.915 4.902 6.068 9.139 6.949 5.748.702 11.531-1.273 10.234-7.378-1.333-4.986-11.77-6.199-18.873-11.531-7.211-4.843-8.901-16.611-2.975-23.335 1.975-2.487 5.343-4.343 8.877-5.235l3.688-.477c7.081-.143 11.507 1.727 14.756 5.355.904.916 1.642 1.904 3.022 4.045-3.772 2.404-3.76 2.381-9.163 5.879-1.154-2.486-3.069-4.046-5.093-4.724-3.142-.952-7.104.083-7.926 3.403-.285 1.023-.226 1.975.227 3.665 1.273 2.903 5.545 4.165 9.377 5.926 11.031 4.474 14.756 9.271 15.672 14.981.882 4.916-.213 8.105-.38 8.581z"/></symbol><symbol viewBox="0 0 128 128" id="icon-ps"><path clip-rule="evenodd" d="M50.246 41.616c-3.682-.925-7.369-.628-11.26-.022 0 6.805-.014 13.427.037 20.05.002.339.511.929.841.974 4.243.573 8.463.619 12.431-1.315 4.105-2 6.196-6.182 5.654-11.092-.492-4.471-3.139-7.448-7.703-8.595zM127 63.963V3.285c0-2.096.023-2.285-2.012-2.285H3.479C1.5 1 1 1.19 1 3.186v121.509c0 2.018.252 2.021 2.209 2.021 40.555.001 81.231-.009 121.786.037 1.573.002 1.995-.417 1.991-1.959-.054-20.277.014-40.556.014-60.831zm-70.648 5.84C50.795 71.785 45 71.896 39 71.431V94H28v-1.402c0-18.895-.087-37.788-.14-56.682-.006-1.569.243-2.327 2.011-2.507 8.332-.852 16.617-1.81 24.902.133 8.906 2.087 14.041 7.975 14.431 16.11.483 10.074-3.944 16.974-12.852 20.151zm44.31 12.754c-.424 5.771-3.678 9.56-9.015 11.392-7.142 2.452-14.245 1.883-21.225-.891-1.143-.455-1.364-1.031-.987-2.196.687-2.126 1.19-4.312 1.72-6.286 2.951.866 5.757 1.947 8.664 2.458 2.053.361 4.272.149 6.359-.178 1.871-.294 3.217-1.564 3.524-3.572.312-2.041-.303-3.809-2.105-4.895-1.432-.862-3.01-1.479-4.523-2.202-2.433-1.163-5.026-2.075-7.27-3.53-8.831-5.727-5.956-16.383-.063-20.396 3.153-2.146 6.642-3.098 10.377-3.229 4.393-.154 8.623.604 12.778 2.623l-2.195 7.789c-1.74-.616-3.36-1.416-5.07-1.734-2.029-.378-4.157-.589-6.205-.422-2.746.225-4.354 2.12-4.354 4.47 0 1.392.528 2.57 1.689 3.245 1.666.969 3.434 1.768 5.186 2.579 1.896.877 3.898 1.551 5.723 2.552 4.87 2.67 7.405 6.8 6.992 12.423z"/></symbol><symbol viewBox="0 0 20 20" id="icon-tg" xmlns="http://www.w3.org/2000/svg"><g clip-path="url(#clip0_1997_1749)"><path d="M7.847 12.65l-.33 4.654c.473 0 .678-.203.924-.447l2.219-2.121 4.598 3.367c.844.47 1.438.223 1.665-.776l3.019-14.143c.268-1.247-.45-1.735-1.272-1.43L.928 8.548c-1.21.47-1.192 1.145-.206 1.451l4.536 1.411 10.536-6.592c.496-.329.947-.147.576.181l-8.523 7.653z"/></g></symbol><symbol viewBox="0 0 350 300" id="icon-twitter" xmlns="http://www.w3.org/2000/svg"><path fill-rule="evenodd" d="M350.001 35.509c-3.975 6.658-9.352 13.688-16.131 21.086-5.377 5.918-11.926 11.961-19.639 18.125v4.81c0 1.232.115 2.096.348 2.589v2.589c0 25.401-4.557 50.864-13.676 76.389-9.118 25.523-22.094 48.397-38.928 68.618-18.004 21.702-39.862 38.841-65.581 51.419-25.72 12.577-54.477 18.865-86.272 18.865-20.576 0-39.98-2.958-58.218-8.877-18.703-5.92-36.005-14.304-51.905-25.155.937.247 2.338.371 4.209.371 3.74.493 6.547.739 8.418.739h4.557c16.367 0 32.384-2.835 48.048-8.508 14.496-5.425 28.172-13.316 41.032-23.674-14.963-.246-28.876-5.426-41.732-15.538-12.627-9.863-21.045-22.317-25.252-37.36 3.507.74 5.728 1.108 6.664 1.108h3.504c.704.247 1.755.371 3.158.371 2.103 0 3.741-.124 4.911-.371 2.337 0 5.612-.493 9.819-1.479.466 0 1.17-.124 2.104-.37.937-.247 1.636-.369 2.103-.369-16.601-3.453-30.277-12.208-41.033-26.265-10.989-14.057-16.48-30.086-16.48-48.088V105.424c4.442 2.959 9.586 5.179 15.431 6.658 6.078 1.972 11.805 2.96 17.184 2.96-10.29-7.398-18.004-16.4-23.147-27.004-5.846-10.851-8.768-22.936-8.768-36.252 0-7.398.817-14.057 2.454-19.976.937-4.193 3.274-10.234 7.015-18.125 18.237 23.673 39.979 42.169 65.231 55.487 25.953 14.303 53.54 22.194 82.766 23.675-.701-5.18-1.05-8.015-1.05-8.508-.471-3.453-.704-6.288-.704-8.509 0-20.962 7.015-38.841 21.042-53.637C205.512 7.396 222.462-.002 242.337-.002c10.286 0 19.988 2.096 29.107 6.288 9.118 4.685 16.95 10.605 23.498 17.756 7.481-1.727 15.43-4.192 23.846-7.398 7.015-2.713 14.263-6.412 21.744-11.097-2.803 8.877-6.898 16.892-12.272 24.044-6.081 7.398-12.509 13.316-19.291 17.756a319.095 319.095 0 0021.041-4.44c5.378-1.479 12.042-3.946 19.991-7.398z"/></symbol><symbol viewBox="0 0 22 16" id="icon-usa" xmlns="http://www.w3.org/2000/svg"><path d="M.077 14.123c.016.062.036.122.056.182.054.16.12.313.202.457l.002.003a2.412 2.412 0 002.092 1.23h17c.896 0 1.67-.497 2.09-1.23h.001l.001-.002c.082-.144.148-.297.202-.456a2.382 2.382 0 00.134-.761V2.464c0-.143-.017-.282-.042-.418a2.268 2.268 0 00-.092-.355 2.57 2.57 0 00-.203-.457 2.412 2.412 0 00-2.092-1.23h-8.5v8.611H0v4.92a2.634 2.634 0 00.077.588z"/><path d="M21.52 1.235a2.412 2.412 0 00-2.092-1.23h-8.5v1.23H21.52zM0 13.535h21.857v-1.23H0v1.23zm10.928-6.15h10.929v1.23H10.928v-1.23zm0-2.46h10.929v1.23H10.928v-1.23zM0 9.845h21.857v1.23H0v-1.23zm19.428 6.15c.897 0 1.671-.497 2.092-1.23H.337a2.412 2.412 0 002.091 1.23h17zm-8.5-13.53h10.929v1.23H10.928v-1.23zM0 2.465c0-.143.12-.281.273-.418-.16.136-.273.275-.273.418zm.343-1.23c-.003.008-.007.012-.007.02.004-.008.004-.012.007-.02zm-.265.745c.076-.098.183-.191.282-.285a3.127 3.127 0 00-.282.285z"/><path d="M10.928.005h-8.5C1.089.005 0 1.106 0 2.465v6.15h10.928V.005z"/><path d="M1.215 1.681l.375.276-.143.447.375-.277.375.277-.144-.447.376-.276h-.464l-.143-.447-.143.447h-.464zm1.215 1.23l.375.276-.144.447.375-.277.375.277-.144-.447.376-.276h-.464l-.143-.447-.143.447H2.43zm2.428 0l.375.276-.144.447.375-.277.376.277-.144-.447.376-.276h-.464l-.144-.447-.142.447h-.464zm2.428 0l.376.276-.144.447.375-.277.375.277-.144-.447.376-.276h-.464l-.143-.447-.143.447h-.464zM2.43 5.371l.375.276-.144.447.375-.276.375.276-.144-.447.376-.276h-.464l-.143-.446-.143.446H2.43zm2.428 0l.375.276-.144.447.375-.276.376.276-.144-.447.376-.276h-.464l-.144-.446-.142.446h-.464zm2.428 0l.376.276-.144.447.375-.276.375.276-.144-.447.376-.276h-.464l-.143-.446-.143.446h-.464zm-3.642-3.69l.375.276-.144.447.375-.277.375.277-.144-.447.376-.276h-.464l-.143-.447-.143.447h-.463zm2.428 0l.375.276-.144.447.376-.277.375.277-.144-.447.376-.276h-.464l-.143-.447-.143.447h-.464zm2.428 0l.376.276-.144.447.375-.277.375.277-.144-.447.376-.276H9.25l-.143-.447-.143.447h-.463zm-7.285 2.46l.375.276-.143.447.375-.276.375.276-.144-.447.376-.276h-.464l-.143-.446-.143.446h-.464zm2.66.723l.375-.276.375.276-.143-.447.375-.276h-.463l-.144-.446-.143.446h-.463l.374.276-.143.447zm2.197-.723l.375.276-.144.447.376-.276.375.276-.144-.447.376-.276h-.464l-.143-.446-.143.446h-.464zm2.428 0l.376.276-.144.447.375-.276.375.276-.144-.447.376-.276H9.25l-.143-.446-.143.446h-.463zm-7.285 2.46l.375.276-.143.447.375-.276.375.276-.144-.447.376-.276h-.464l-.143-.446-.143.446h-.464zm2.66.723l.375-.276.375.276-.143-.447.375-.276h-.463l-.144-.446-.143.446h-.463l.374.276-.143.447zm2.197-.723l.375.276-.144.447.376-.276.375.276-.144-.447.376-.276h-.464l-.143-.446-.143.446h-.464zm2.428 0l.376.276-.144.447.375-.276.375.276-.144-.447.376-.276H9.25l-.143-.446-.143.446h-.463z"/></symbol><symbol viewBox="0 0 128 128" id="icon-webpack"><path d="M117.29 98.1L66.24 127v-22.51L98 87l19.29 11.1zm3.5-3.16V34.55l-18.68 10.8v38.81l18.67 10.77zM10.71 98.1l51 28.88v-22.49L29.94 87zm-3.5-3.16V34.55l18.68 10.8v38.81zm2.19-64.3L61.76 1v21.76L28.21 41.21l-.27.15zm109.18 0L66.24 1v21.76L99.79 41.2l.27.15 18.54-10.71zM61.76 99.37L30.37 82.1V47.92L61.76 66zm4.48 0l31.39-17.25v-34.2L66.24 66zM32.5 44L64 26.66 95.5 44 64 62.16 32.5 44z"/></symbol><symbol viewBox="0 0 128 128" id="icon-wp"><path clip-rule="evenodd" d="M64.094 126.224c34.275-.052 62.021-27.933 62.021-62.325 0-33.833-27.618-61.697-60.613-62.286C30.85.995 1.894 29.113 1.885 63.21c-.01 35.079 27.612 63.064 62.209 63.014zM63.993 4.63c32.907-.011 59.126 26.725 59.116 60.28-.011 31.679-26.925 58.18-59.092 58.187-32.771.007-59.125-26.563-59.124-59.608.002-32.193 26.766-58.848 59.1-58.859zM39.157 35.896c.538 1.793-.968 2.417-2.569 2.542-1.685.13-3.369.257-5.325.406 6.456 19.234 12.815 38.183 19.325 57.573.464-.759.655-.973.739-1.223 3.574-10.682 7.168-21.357 10.651-32.069.318-.977.16-2.271-.188-3.275-1.843-5.32-4.051-10.524-5.667-15.908-1.105-3.686-2.571-6.071-6.928-5.644-.742.073-1.648-1.524-2.479-2.349 1.005-.6 2.003-1.704 3.017-1.719a849.593 849.593 0 0126.618.008c1.018.017 2.016 1.15 3.021 1.765-.88.804-1.639 2.01-2.668 2.321-1.651.498-3.482.404-5.458.58l19.349 57.56c2.931-9.736 5.658-18.676 8.31-27.639 2.366-8.001.956-15.473-3.322-22.52-1.286-2.119-2.866-4.175-3.595-6.486-.828-2.629-1.516-5.622-1.077-8.259.745-4.469 4.174-6.688 8.814-7.113C74.333.881 34.431 9.317 19.728 34.922c5.66-.261 11.064-.604 16.472-.678 1.022-.013 2.717.851 2.957 1.652zm10.117 77.971c-.118.345-.125.729-.218 1.302 10.943 3.034 21.675 2.815 32.659-.886l-16.78-45.96c-5.37 15.611-10.52 30.575-15.661 45.544zm-8.456-2.078l-25.281-69.35c-11.405 22.278-2.729 56.268 25.281 69.35zm76.428-44.562c.802-10.534-2.832-25.119-5.97-27.125-.35 3.875-.106 8.186-1.218 12.114-2.617 9.255-5.817 18.349-8.899 27.468-3.35 9.912-6.832 19.779-10.257 29.666 16.092-9.539 24.935-23.618 26.344-42.123z"/></symbol></svg>