<svg width="22" height="22" viewBox="0 0 22 22" fill="none" xmlns="http://www.w3.org/2000/svg">
<path id="vector" fill-rule="evenodd" clip-rule="evenodd" d="M10.8333 0C4.85268 0 0 4.85268 0 10.8333C0 16.814 4.85268 21.6667 10.8333 21.6667C16.8022 21.6667 21.6667 16.814 21.6667 10.8333C21.6667 4.85268 16.8022 0 10.8333 0ZM17.989 4.99367C19.2815 6.56814 20.0569 8.57738 20.0805 10.7511C19.775 10.6923 16.72 10.0696 13.6416 10.4573C13.571 10.3046 13.5123 10.1401 13.4418 9.97559C13.2538 9.52911 13.0423 9.07086 12.8308 8.63612C16.2383 7.24965 17.7892 5.25217 17.989 4.99367ZM10.8333 1.59798C13.1833 1.59798 15.3335 2.47921 16.9667 3.92444C16.8022 4.15944 15.404 6.02767 12.1141 7.26139C10.5983 4.47668 8.91811 2.19722 8.65963 1.84472C9.35285 1.68022 10.0813 1.59798 10.8333 1.59798ZM6.89715 2.46747C7.14389 2.79645 8.78887 5.08768 10.3281 7.81363C6.00416 8.9651 2.18547 8.94162 1.77422 8.94162C2.37345 6.07466 4.31219 3.68944 6.89715 2.46747ZM1.57448 10.8451C1.57448 10.7511 1.57448 10.6571 1.57448 10.5631C1.97397 10.5748 6.46241 10.6336 11.0801 9.24712C11.3503 9.76411 11.5971 10.2928 11.8321 10.8216C11.7146 10.8568 11.5853 10.8921 11.4678 10.9273C6.69741 12.4666 4.15944 16.673 3.94795 17.0255C2.47921 15.3923 1.57448 13.2186 1.57448 10.8451ZM10.8333 20.0922C8.69488 20.0922 6.72089 19.3637 5.15816 18.1417C5.32268 17.801 7.20265 14.182 12.4196 12.3608C12.4431 12.3491 12.4548 12.3491 12.4783 12.3373C13.7825 15.7095 14.3113 18.5412 14.4523 19.352C13.3361 19.8337 12.1141 20.0922 10.8333 20.0922ZM15.9915 18.506C15.8975 17.942 15.404 15.2395 14.1938 11.9143C17.096 11.4561 19.6339 12.2081 19.9512 12.3138C19.5517 14.887 18.0712 17.1077 15.9915 18.506Z" fill="#4E4E4E"/>
</svg>
