<svg width="25" height="17" viewBox="0 0 25 17" fill="none" xmlns="http://www.w3.org/2000/svg">
<path d="M7.2364 0.00144296C7.9119 -0.0110989 8.58644 0.0581557 9.24531 0.207696C9.80004 0.32881 10.3267 0.554182 10.7974 0.871832C11.232 1.1877 11.5759 1.61235 11.7946 2.10316C12.0459 2.7067 12.1671 3.35643 12.1504 4.00998C12.1789 4.72758 11.9957 5.43772 11.6234 6.05189C11.2318 6.63195 10.6905 7.09521 10.0569 7.39253C10.9167 7.62433 11.6656 8.1553 12.169 8.88993C12.6521 9.66833 12.895 10.5719 12.8671 11.4877C12.8831 12.2178 12.7321 12.9419 12.4257 13.6049C12.1426 14.1832 11.7279 14.6872 11.215 15.0765C10.687 15.4615 10.0928 15.7464 9.46187 15.917C8.80764 16.098 8.13177 16.1889 7.45297 16.1872H0V0.00144296H7.2364ZM6.80636 6.54792C7.33711 6.5698 7.85958 6.41092 8.28829 6.09726C8.49361 5.91448 8.65333 5.6862 8.75468 5.43068C8.85603 5.17516 8.8962 4.89947 8.87199 4.62564C8.88573 4.30583 8.82205 3.98743 8.68636 3.6975C8.57126 3.46667 8.39229 3.27374 8.17073 3.14165C7.94632 2.99626 7.69419 2.89899 7.43028 2.85599C7.14393 2.80052 6.85254 2.77529 6.56092 2.78071H3.37637V6.56236H6.80636V6.54792ZM6.99199 13.4388C7.31296 13.4432 7.63328 13.4086 7.94591 13.3357C8.23161 13.2726 8.50257 13.1554 8.74411 12.9902C8.98075 12.8252 9.17193 12.6032 9.29996 12.3447C9.44842 12.015 9.51663 11.6549 9.499 11.2938C9.53119 10.9648 9.4876 10.6327 9.37159 10.3231C9.25558 10.0135 9.07021 9.73454 8.82971 9.50766C8.31995 9.13221 7.69525 8.94622 7.06315 8.98171H3.37637V13.4388H6.99199Z" fill="#4E4E4E"/>
<path d="M17.6759 13.3792C17.941 13.6249 18.2531 13.814 18.5935 13.9353C18.9339 14.0566 19.2954 14.1074 19.656 14.0846C20.2277 14.0991 20.7882 13.9251 21.2514 13.5896C21.6281 13.3446 21.9134 12.9821 22.063 12.5583H24.7556C24.4687 13.7647 23.7681 14.8325 22.7756 15.5758C21.8234 16.2078 20.6982 16.5279 19.5559 16.4916C18.7407 16.5023 17.9317 16.349 17.1768 16.0409C16.494 15.7562 15.8816 15.3257 15.3824 14.7797C14.8851 14.2075 14.5031 13.5446 14.2573 12.8275C13.9814 12.0259 13.8464 11.1826 13.8582 10.3349C13.8532 9.50148 13.9927 8.67348 14.2707 7.88773C14.6441 6.78233 15.3581 5.82364 16.3103 5.14924C17.2624 4.47484 18.4037 4.1194 19.5704 4.13392C20.4317 4.11592 21.2835 4.3175 22.0454 4.71968C22.7341 5.09733 23.3283 5.62622 23.7831 6.26658C24.2484 6.93851 24.5819 7.69265 24.7659 8.48896C24.9677 9.34405 25.0397 10.2246 24.9794 11.1012H16.9592C16.8942 11.9247 17.1512 12.7413 17.6759 13.3792ZM21.1946 7.2236C20.9702 6.99911 20.7003 6.82533 20.403 6.71397C20.1057 6.60261 19.7881 6.55625 19.4714 6.57802C19.0512 6.562 18.6341 6.65509 18.2607 6.84822C17.9646 7.01121 17.7033 7.23051 17.4913 7.49379C17.3036 7.74063 17.1636 8.02046 17.0788 8.3188C17.0024 8.56762 16.9547 8.82435 16.9365 9.084H21.9041C21.8609 8.40713 21.6143 7.75908 21.1967 7.22463L21.1946 7.2236Z" fill="#4E4E4E"/>
<path d="M22.5208 1.08203H16.2961V2.67328H22.5208V1.08203Z" fill="#4E4E4E"/>
</svg>
