<svg width="46" height="46" viewBox="0 0 46 46" fill="none" xmlns="http://www.w3.org/2000/svg">
<path fill-rule="evenodd" clip-rule="evenodd" d="M22.8333 12C16.8527 12 12 16.8527 12 22.8333C12 28.814 16.8527 33.6667 22.8333 33.6667C28.8022 33.6667 33.6667 28.814 33.6667 22.8333C33.6667 16.8527 28.8022 12 22.8333 12ZM29.989 16.9937C31.2815 18.5681 32.0569 20.5774 32.0805 22.7511C31.775 22.6923 28.72 22.0696 25.6416 22.4573C25.571 22.3046 25.5123 22.1401 25.4418 21.9756C25.2538 21.5291 25.0423 21.0709 24.8308 20.6361C28.2383 19.2496 29.7892 17.2522 29.989 16.9937ZM22.8333 13.598C25.1833 13.598 27.3335 14.4792 28.9667 15.9244C28.8022 16.1594 27.404 18.0277 24.1141 19.2614C22.5983 16.4767 20.9181 14.1972 20.6596 13.8447C21.3529 13.6802 22.0813 13.598 22.8333 13.598ZM18.8972 14.4675C19.1439 14.7965 20.7889 17.0877 22.3281 19.8136C18.0042 20.9651 14.1855 20.9416 13.7742 20.9416C14.3735 18.0747 16.3122 15.6894 18.8972 14.4675ZM13.5745 22.8451C13.5745 22.7511 13.5745 22.6571 13.5745 22.5631C13.974 22.5748 18.4624 22.6336 23.0801 21.2471C23.3503 21.7641 23.5971 22.2928 23.8321 22.8216C23.7146 22.8568 23.5853 22.8921 23.4678 22.9273C18.6974 24.4666 16.1594 28.673 15.9479 29.0255C14.4792 27.3923 13.5745 25.2186 13.5745 22.8451ZM22.8333 32.0922C20.6949 32.0922 18.7209 31.3637 17.1582 30.1417C17.3227 29.801 19.2027 26.182 24.4196 24.3608C24.4431 24.3491 24.4548 24.3491 24.4783 24.3373C25.7825 27.7095 26.3113 30.5412 26.4523 31.352C25.3361 31.8337 24.1141 32.0922 22.8333 32.0922ZM27.9915 30.506C27.8975 29.942 27.404 27.2395 26.1938 23.9143C29.096 23.4561 31.6339 24.2081 31.9512 24.3138C31.5517 26.887 30.0712 29.1077 27.9915 30.506Z" fill="#4E4E4E"/>
<rect x="0.5" y="0.5" width="45" height="45" rx="22.5" stroke="#4E4E4E"/>
</svg>
