<svg width="17" height="17" viewBox="0 0 17 17" fill="none" xmlns="http://www.w3.org/2000/svg">
<path d="M3.76229 5.85246H0.278689V17H3.76229V5.85246ZM4.07582 2.02049C4.07766 1.75698 4.02757 1.4957 3.92843 1.25155C3.82928 1.0074 3.68301 0.785167 3.49798 0.597546C3.31295 0.409925 3.09277 0.260587 2.85002 0.15806C2.60727 0.0555326 2.3467 0.00182355 2.0832 0H2.02049C1.48462 1.12926e-08 0.970704 0.212873 0.591788 0.591788C0.212873 0.970704 0 1.48462 0 2.02049C0 2.55636 0.212873 3.07028 0.591788 3.4492C0.970704 3.82811 1.48462 4.04098 2.02049 4.04098C2.28402 4.04747 2.54624 4.00196 2.79217 3.90707C3.0381 3.81217 3.26293 3.66975 3.4538 3.48794C3.64467 3.30613 3.79784 3.08849 3.90457 2.84746C4.0113 2.60642 4.06949 2.34673 4.07582 2.0832V2.02049ZM17 10.2279C17 6.87664 14.868 5.57377 12.75 5.57377C12.0565 5.53905 11.366 5.68675 10.7475 6.00216C10.1289 6.31756 9.60379 6.78964 9.22459 7.37131H9.12705V5.85246H5.85246V17H9.33607V11.0709C9.28571 10.4637 9.47699 9.86108 9.86835 9.39405C10.2597 8.92703 10.8195 8.63329 11.4262 8.57664H11.5586C12.6664 8.57664 13.4885 9.27336 13.4885 11.0291V17H16.9721L17 10.2279Z" fill="#4E4E4E"/>
</svg>
