<svg width="46" height="46" viewBox="0 0 46 46" fill="none" xmlns="http://www.w3.org/2000/svg">
<path fill-rule="evenodd" clip-rule="evenodd" d="M23 12.1667C17.0194 12.1667 12.1667 17.0194 12.1667 23.0001C12.1667 28.9807 17.0194 33.8334 23 33.8334C28.9689 33.8334 33.8334 28.9807 33.8334 23.0001C33.8334 17.0194 28.9689 12.1667 23 12.1667ZM30.1557 17.1604C31.4481 18.7349 32.2236 20.7441 32.2471 22.9178C31.9416 22.8591 28.8867 22.2364 25.8082 22.6241C25.7377 22.4714 25.679 22.3068 25.6085 22.1423C25.4205 21.6959 25.209 21.2376 24.9975 20.8029C28.4049 19.4164 29.9559 17.4189 30.1557 17.1604ZM23 13.7647C25.35 13.7647 27.5002 14.646 29.1334 16.0912C28.9689 16.3262 27.5707 18.1944 24.2808 19.4281C22.765 16.6434 21.0848 14.364 20.8263 14.0115C21.5195 13.847 22.248 13.7647 23 13.7647ZM19.0638 14.6342C19.3106 14.9632 20.9556 17.2544 22.4948 19.9804C18.1708 21.1319 14.3522 21.1084 13.9409 21.1084C14.5401 18.2414 16.4789 15.8562 19.0638 14.6342ZM13.7412 23.0118C13.7412 22.9178 13.7412 22.8238 13.7412 22.7298C14.1407 22.7416 18.6291 22.8003 23.2468 21.4139C23.517 21.9309 23.7638 22.4596 23.9987 22.9883C23.8812 23.0236 23.752 23.0588 23.6345 23.0941C18.8641 24.6333 16.3261 28.8397 16.1146 29.1922C14.6459 27.559 13.7412 25.3853 13.7412 23.0118ZM23 32.2589C20.8616 32.2589 18.8876 31.5304 17.3248 30.3085C17.4894 29.9677 19.3693 26.3488 24.5862 24.5276C24.6097 24.5158 24.6215 24.5158 24.645 24.5041C25.9492 27.8763 26.478 30.708 26.619 31.5187C25.5027 32.0004 24.2808 32.2589 23 32.2589ZM28.1582 30.6727C28.0642 30.1087 27.5707 27.4063 26.3605 24.0811C29.2627 23.6228 31.8006 24.3748 32.1179 24.4806C31.7184 27.0538 30.2379 29.2745 28.1582 30.6727Z" fill="#4E4E4E"/>
<rect x="0.5" y="0.5" width="45" height="45" rx="22.5" stroke="#4E4E4E"/>
</svg>
