<svg width="18" height="18" viewBox="0 0 18 18" fill="none" xmlns="http://www.w3.org/2000/svg">
<g clip-path="url(#clip0_979_9931)">
<path fill-rule="evenodd" clip-rule="evenodd" d="M12.6326 4.91077C11.7033 4.02449 10.4632 3.54167 9.18004 3.56151C6.83208 3.56151 4.83797 5.14555 4.12696 7.27855C3.74996 8.39631 3.74996 9.60672 4.12696 10.7245H4.13026C4.84457 12.8542 6.83538 14.4382 9.18335 14.4382C10.3954 14.4382 11.4359 14.1282 12.2423 13.5807V13.5784C13.1915 12.9501 13.8396 11.9613 14.0414 10.8436H9.18005V7.37782H17.6691C17.775 7.9797 17.8246 8.5948 17.8246 9.20659C17.8246 11.944 16.8463 14.2583 15.1441 15.8258L15.1459 15.8272C13.6544 17.2029 11.6074 17.9999 9.18005 17.9999C5.77714 17.9999 2.66525 16.0818 1.13742 13.0427C-0.139072 10.4996 -0.139069 7.50347 1.13743 4.9604C2.66526 1.91796 5.77714 -0.000125922 9.18004 -0.000125922C11.4156 -0.0265819 13.575 0.813396 15.2021 2.34123L12.6326 4.91077Z" fill="#4E4E4E"/>
</g>
<defs>
<clipPath id="clip0_979_9931">
<rect width="18" height="18" fill="white"/>
</clipPath>
</defs>
</svg>
