<svg width="22" height="16" viewBox="0 0 22 16" fill="none" xmlns="http://www.w3.org/2000/svg">
<path d="M0.0773095 14.123C0.0931044 14.1851 0.113168 14.2454 0.133189 14.3051C0.187233 14.4644 0.252803 14.6182 0.335364 14.7621C0.336004 14.7633 0.336004 14.7652 0.336644 14.7652H0.336943C0.757684 15.4977 1.53176 15.9952 2.42853 15.9952H19.4282C20.3249 15.9952 21.099 15.4977 21.5197 14.7652H21.52C21.5206 14.7652 21.5206 14.7633 21.5212 14.7627C21.6032 14.6194 21.6688 14.4656 21.7228 14.3069C21.7435 14.246 21.7635 14.1851 21.7793 14.1224C21.7938 14.0664 21.8048 14.0099 21.8151 13.9533C21.8388 13.8206 21.8559 13.6864 21.8567 13.5455V13.5352V12.3052V11.0752V9.84514V8.61513V7.38512V6.15511V4.9251V3.69509V2.4649C21.8567 2.3216 21.8397 2.18261 21.8149 2.0467C21.8051 1.99014 21.7936 1.93353 21.7796 1.87818C21.7632 1.81483 21.7432 1.75334 21.7226 1.69245C21.6685 1.53379 21.6035 1.38062 21.521 1.23736C21.521 1.23675 21.5204 1.2355 21.5198 1.23489H21.5199C21.0991 0.502396 20.3251 0.00488281 19.4283 0.00488281H10.9283V1.23489V2.4649V3.69492V4.92493V6.15494V7.38495V8.61496H0V9.84497V11.075V12.305V13.5352C0 13.6784 0.0171609 13.8168 0.0414082 13.9526C0.0517389 14.0099 0.0633502 14.0671 0.0773095 14.123Z" fill="#EEEEEE"/>
<path d="M21.5198 1.23489C21.099 0.502396 20.325 0.00488281 19.4282 0.00488281H10.9283V1.23489H21.5197H21.5198Z" fill="#B22334"/>
<path d="M0 13.5352H21.8567V12.3052H0V13.5352Z" fill="#B22334"/>
<path d="M10.9283 7.38501H21.8567V8.61502H10.9283V7.38501Z" fill="#B22334"/>
<path d="M10.9283 4.92499H21.8567V6.155H10.9283V4.92499Z" fill="#B22334"/>
<path d="M0 9.84509H21.8567V11.0751H0V9.84509Z" fill="#B22334"/>
<path d="M19.4281 15.9953C20.3249 15.9953 21.099 15.4977 21.5197 14.7653H0.336914C0.757655 15.4978 1.53173 15.9953 2.4285 15.9953H19.4281Z" fill="#B22334"/>
<path d="M10.9283 2.4649H21.8567V3.69492H10.9283V2.4649Z" fill="#B22334"/>
<path d="M0 2.4649C0 2.32159 0.120436 2.18382 0.272744 2.0473C0.112256 2.18322 0 2.32159 0 2.4649Z" fill="#EEEEEE"/>
<path d="M0.343469 1.23486C0.33952 1.24286 0.335571 1.24715 0.335571 1.25515C0.33952 1.24686 0.33952 1.24286 0.343469 1.23486Z" fill="#EEEEEE"/>
<path d="M0.0775146 1.98023C0.154281 1.88209 0.261452 1.78881 0.359566 1.69452C0.258433 1.78881 0.1573 1.8831 0.0775146 1.98023Z" fill="#EEEEEE"/>
<path d="M10.9283 0.00482178H2.42853C1.08737 0.00482178 0 1.10631 0 2.46489V8.61503H10.9283V0.00482178Z" fill="#3C3B6E"/>
<path d="M1.21515 1.68098L1.59034 1.95713L1.44708 2.40362L1.82167 2.12747L2.19686 2.40362L2.05296 1.95713L2.42879 1.68098H1.96494L1.82167 1.2345L1.67901 1.68098H1.21515Z" fill="white"/>
<path d="M2.42938 2.91096L2.80457 3.18712L2.66067 3.6336L3.03586 3.35745L3.41105 3.6336L3.26715 3.18712L3.64298 2.91096H3.17917L3.03591 2.46448L2.89324 2.91096H2.42938Z" fill="white"/>
<path d="M4.85791 2.91096L5.2331 3.18712L5.0892 3.6336L5.46439 3.35745L5.83958 3.6336L5.69568 3.18712L6.07151 2.91096H5.60765L5.46439 2.46448L5.32172 2.91096H4.85791Z" fill="white"/>
<path d="M7.28644 2.91096L7.66163 3.18712L7.51773 3.6336L7.89292 3.35745L8.26811 3.6336L8.12421 3.18712L8.50004 2.91096H8.03618L7.89292 2.46448L7.75025 2.91096H7.28644Z" fill="white"/>
<path d="M2.42938 5.37117L2.80457 5.64732L2.66067 6.09381L3.03586 5.81766L3.41105 6.09381L3.26715 5.64732L3.64298 5.37117H3.17917L3.03591 4.92468L2.89324 5.37117H2.42938Z" fill="white"/>
<path d="M4.85791 5.37117L5.2331 5.64732L5.0892 6.09381L5.46439 5.81766L5.83958 6.09381L5.69568 5.64732L6.07151 5.37117H5.60765L5.46439 4.92468L5.32172 5.37117H4.85791Z" fill="white"/>
<path d="M7.28644 5.37117L7.66163 5.64732L7.51773 6.09381L7.89292 5.81766L8.26811 6.09381L8.12421 5.64732L8.50004 5.37117H8.03618L7.89292 4.92468L7.75025 5.37117H7.28644Z" fill="white"/>
<path d="M3.64362 1.68098L4.01881 1.95713L3.8749 2.40362L4.2501 2.12747L4.62529 2.40362L4.48138 1.95713L4.85722 1.68098H4.39336L4.2501 1.2345L4.10743 1.68098H3.64362Z" fill="white"/>
<path d="M6.07214 1.68098L6.44734 1.95713L6.30343 2.40362L6.67862 2.12747L7.05382 2.40362L6.90991 1.95713L7.28574 1.68098H6.82189L6.67862 1.2345L6.53596 1.68098H6.07214Z" fill="white"/>
<path d="M8.50067 1.68098L8.87586 1.95713L8.73196 2.40362L9.10715 2.12747L9.48234 2.40362L9.33844 1.95713L9.71427 1.68098H9.25042L9.10715 1.2345L8.96449 1.68098H8.50067Z" fill="white"/>
<path d="M1.21515 4.14119L1.59034 4.41734L1.44708 4.86383L1.82167 4.58768L2.19686 4.86383L2.05296 4.41734L2.42879 4.14119H1.96494L1.82167 3.6947L1.67901 4.14119H1.21515Z" fill="white"/>
<path d="M3.87519 4.86371L4.25038 4.58756L4.62498 4.86371L4.48171 4.41722L4.85691 4.14107H4.39365L4.25038 3.69519L4.10712 4.14107H3.64386L4.01845 4.41722L3.87519 4.86371Z" fill="white"/>
<path d="M6.07214 4.14119L6.44734 4.41734L6.30343 4.86383L6.67862 4.58768L7.05382 4.86383L6.90991 4.41734L7.28574 4.14119H6.82189L6.67862 3.6947L6.53596 4.14119H6.07214Z" fill="white"/>
<path d="M8.50067 4.14119L8.87586 4.41734L8.73196 4.86383L9.10715 4.58768L9.48234 4.86383L9.33844 4.41734L9.71427 4.14119H9.25042L9.10715 3.6947L8.96449 4.14119H8.50067Z" fill="white"/>
<path d="M1.21515 6.60127L1.59034 6.87742L1.44708 7.32391L1.82167 7.04776L2.19686 7.32391L2.05296 6.87742L2.42879 6.60127H1.96494L1.82167 6.15479L1.67901 6.60127H1.21515Z" fill="white"/>
<path d="M3.87519 7.32373L4.25038 7.04758L4.62498 7.32373L4.48171 6.87724L4.85691 6.60109H4.39365L4.25038 6.15521L4.10712 6.60109H3.64386L4.01845 6.87724L3.87519 7.32373Z" fill="white"/>
<path d="M6.07214 6.60127L6.44734 6.87742L6.30343 7.32391L6.67862 7.04776L7.05382 7.32391L6.90991 6.87742L7.28574 6.60127H6.82189L6.67862 6.15479L6.53596 6.60127H6.07214Z" fill="white"/>
<path d="M8.50067 6.60127L8.87586 6.87742L8.73196 7.32391L9.10715 7.04776L9.48234 7.32391L9.33844 6.87742L9.71427 6.60127H9.25042L9.10715 6.15479L8.96449 6.60127H8.50067Z" fill="white"/>
</svg>
