<svg width="24" height="24" fill="none" xmlns="http://www.w3.org/2000/svg"><path d="M1 5.143V20s3.314-1.143 5.5-1.143c1.3 0 2.996.404 4.16.731.66.186 1.34-.304 1.34-.99V5.906c0-.451-.302-.847-.736-.968C9.492 4.443 7.976 4 6.5 4 4.824 4 3.095 4.571 1 5.143zm11 .764v12.69c0 .687.68 1.177 1.34.991 1.164-.327 2.86-.73 4.16-.73C19.686 18.857 23 20 23 20V5.143C20.905 4.57 19.176 4 17.5 4c-1.476 0-2.992.443-4.764.939a1.006 1.006 0 00-.736.968z" stroke="#918F8F"/><path d="M14 8s2.133-1 3.5-1S21 8 21 8m-7 4s2.133-1 3.5-1 3.5 1 3.5 1m-7 4s2.133-1 3.5-1 3.5 1 3.5 1" stroke="#918F8F" stroke-linecap="round"/></svg>