<svg width="24" height="24" fill="none" xmlns="http://www.w3.org/2000/svg"><path d="M2.335 12.448c.186.085.387.18.596.284.95.472 2.134 1.152 2.9 1.942.774.796 1.421 2.013 1.866 2.987.1.219.19.429.272.622.085-.186.18-.387.284-.596.472-.95 1.152-2.134 1.942-2.9.796-.774 2.013-1.421 2.987-1.866.22-.1.429-.19.623-.272a20 20 0 01-.597-.284c-.95-.472-2.134-1.152-2.9-1.942-.774-.796-1.421-2.013-1.866-2.987-.1-.219-.19-.429-.271-.622-.086.186-.181.387-.285.596-.472.95-1.152 2.134-1.941 2.9-.797.774-2.013 1.421-2.988 1.866-.219.1-.428.19-.622.272z" stroke="#918F8F"/><path d="M23.457 5.037s-1.72-.644-2.51-1.457C20.15 2.759 19.558 1 19.558 1s-.643 1.721-1.457 2.51c-.82.797-2.58 1.389-2.58 1.389s1.721.643 2.51 1.457c.798.82 1.389 2.58 1.389 2.58s.644-1.721 1.457-2.51c.821-.798 2.58-1.389 2.58-1.389zm-.521 14.479s-1.721-.644-2.51-1.458c-.798-.82-1.389-2.58-1.389-2.58s-.644 1.722-1.457 2.511c-.821.797-2.58 1.388-2.58 1.388s1.72.644 2.51 1.457c.797.821 1.388 2.58 1.388 2.58s.644-1.72 1.458-2.51c.82-.797 2.58-1.388 2.58-1.388z" fill="#918F8F"/></svg>