<svg width="24" height="24" fill="none" xmlns="http://www.w3.org/2000/svg"><path fill-rule="evenodd" clip-rule="evenodd" d="M11.8 2.51c-2.768-.045-4.963 1.055-6.578 3.375-.609.939-1.08 1.91-1.204 2.984-.124 1.073-.513 2.02-1.03 2.94-.219.39-.422.791-.625 1.191l-.202.398c-.363.708-.099 1.304.665 1.502l.111.03c.139.038.278.076.417.081.568.02.733.33.76.865.045.91.133 1.819.22 2.726l.04.419c.082.861.494 1.174 1.342 1.07.544-.066 1.088-.125 1.649-.185l.765-.083v.621c.001.513.002 1.016-.003 1.52-.002.258.028.509.343.503.306-.006.35-.26.35-.514l-.002-.612c-.001-.558-.003-1.117.004-1.675.006-.452-.184-.615-.636-.555-.383.05-.769.09-1.154.129a35.77 35.77 0 00-1.266.144c-.473.066-.681-.034-.702-.573-.035-.9-.135-1.8-.235-2.697l-.02-.174c-.147-1.323-.158-1.325-1.426-1.628l-.01-.002c-.403-.096-.601-.143-.652-.256-.051-.113.041-.29.222-.645.14-.276.288-.55.436-.824.664-1.235 1.329-2.47 1.387-3.939 0-.018.005-.036.01-.053.815-3.122 3.391-5.296 6.322-5.366.399-.01.42.086.29.417-.088.225-.234.246-.414.271l-.048.007c-.765.117-1.425.464-1.598 1.256-.123.558-.3.865-.863 1.076-.63.238-.852 1.015-.653 1.722.217.768.545 1.014 1.359 1.014.226 0 .453.001.679.003.55.004 1.1.008 1.65-.01.406-.014.592.053.508.529-.087.497.144.89.619 1.09.425.18.817.082 1.146-.235.204-.197.283-.455.308-.736.033-.376.24-.6.617-.636.369-.036.643.126.758.48.118.363-.044.651-.363.817-1.346.702-1.475 1.907-1.325 3.219.061.531.49.866 1.016.866.519 0 .942-.342 1.018-.868.041-.285.034-.58.022-.869-.012-.262.065-.437.304-.576 1.04-.601 1.512-1.514 1.427-2.719l-.006-.058c-.013-.101-.025-.204.101-.274.392-.218.942.043 1.005.483.316 2.223-.227 4.211-1.646 5.942-.56.684-.916 1.436-.925 2.323-.011.992-.009 1.984-.006 2.975l.002 1.109v.015c0 .275 0 .596.36.602.364.006.364-.308.364-.582v-.023c0-.354.004-.708.008-1.061.009-.809.018-1.617-.021-2.424-.052-1.061.28-1.92.943-2.74 1.295-1.603 1.799-3.482 1.703-5.535a2.047 2.047 0 00-.068-.374c-.062-.254-.122-.502.023-.657.154-.163.43-.13.703-.099.117.014.234.028.34.026.844-.012 1.084-.254 1.063-1.109-.01-.375-.104-.725-.374-.993-.185-.183-.236-.356-.185-.623.256-1.35-.832-2.521-2.212-2.388-.236.023-.403-.016-.584-.175-.455-.4-1.004-.613-1.6-.502-.36.067-.55-.035-.78-.288-.878-.973-2.146-1.184-3.296-.566a1.296 1.296 0 01-.666.16zm6.61 5.034c.015-.329.17-.585.424-.837.27-.247.57-.313.876-.354.554-.074.682-.262.542-.805-.13-.508-.655-1.04-1.17-.963-.68.1-1.158-.088-1.666-.524-.345-.296-.875-.303-1.266.01-.334.267-.406.676-.264 1.091a1.6 1.6 0 00.231.426c.146.197.232.4 0 .564-.216.152-.402.044-.557-.152-.486-.619-.56-1.296-.213-1.983.146-.29.101-.46-.097-.66-.552-.556-1.217-.791-1.975-.605-.731.18-1.19.681-1.317 1.43-.069.4-.239.51-.628.44-.582-.105-1.076.164-1.287.66-.168.398-.155.779.17 1.103.367.365.827.376 1.433.038.311-.173.605-.064.597.225-.004.181-.134.283-.26.381l-.007.006c-.645.505-1.492.46-2.23-.146-.343-.282-.673-.226-.993-.017-.336.22-.354.568-.27.925.086.375.313.505.707.491a41.561 41.561 0 012.6-.002c.37.01.621-.087.88-.381 1.189-1.356 3.17-1.308 4.3.091.169.21.328.29.585.287a111.17 111.17 0 011.623-.005l1.14-.001c.486-.003.6-.176.433-.645-.145-.408-.428-.59-.868-.587-.444.002-.725.164-.808.62-.04.22-.161.385-.403.343-.249-.042-.273-.247-.262-.464z" fill="#918F8F"/></svg>