<svg width="24" height="24" fill="none" xmlns="http://www.w3.org/2000/svg"><path fill-rule="evenodd" clip-rule="evenodd" d="M17.228 10.246l4.813-7.717L21.193 2l-5.143 8.245h-1.812l-1.307-2.71-.38-.789-.486.729L8.11 13.4l-2.457-2.974-.436-.528-.37.576L1 16.462l.842.54 3.477-5.41 2.449 2.964.428.518.373-.559 3.842-5.757.717 1.489h4.1zm-.622.998h-2.997v.001h2.996z" fill="#918F8F"/><circle cx="4" cy="4" r="3.5" transform="matrix(-1 0 0 1 19.436 11.765)" stroke="#918F8F"/><path d="M17.936 18.265l4 3.5" stroke="#918F8F"/></svg>