<svg width="24" height="24" fill="none" xmlns="http://www.w3.org/2000/svg"><path d="M22.422 8.617H14.1a7.201 7.201 0 00-2.115-3.377C10.44 3.858 8.448 3.223 6.37 3.453 3.041 3.82.377 6.51.038 9.845a7.192 7.192 0 005.63 7.78l1.774 1.773a.774.774 0 00.847.169.774.774 0 00.479-.718v-1.242a7.26 7.26 0 00.852-.246v.049c0 .87.708 1.578 1.578 1.578h2.65L15.26 20.4a.656.656 0 001.124-.465v-.947h6.038A1.58 1.58 0 0024 17.41v-7.215a1.58 1.58 0 00-1.578-1.578zM8.326 16.93a.376.376 0 00-.31.37v1.55c0 .008 0 .016-.015.022-.016.007-.021.001-.027-.005L6.12 17.013a.375.375 0 00-.192-.102A6.443 6.443 0 01.786 9.92a6.425 6.425 0 011.833-3.85 6.416 6.416 0 014.58-1.91 6.37 6.37 0 014.284 1.64 6.449 6.449 0 012.145 4.798 6.425 6.425 0 01-5.302 6.333zm14.922.48c0 .456-.37.827-.826.827h-6.414a.376.376 0 00-.376.376v1.096l-1.362-1.362a.376.376 0 00-.266-.11h-2.806a.828.828 0 01-.827-.827v-.366a7.176 7.176 0 003.902-7.676h8.149c.456 0 .826.371.826.827v7.215z" fill="#918F8F"/><path d="M21.084 11.532a.376.376 0 00-.532 0l-3.742 3.743-1.738-1.737a.376.376 0 10-.531.531l2.003 2.003a.375.375 0 00.532 0l4.008-4.008a.376.376 0 000-.532zM7.19 13.428a.376.376 0 000 .752.376.376 0 00.376-.375v-.001a.376.376 0 00-.376-.376zm1.674-5.707a2.359 2.359 0 00-1.675-.706 2.383 2.383 0 00-2.38 2.38.376.376 0 00.752 0c0-.898.73-1.628 1.628-1.628.424 0 .83.172 1.143.485.314.314.486.72.486 1.143 0 .714-.477 1.356-1.16 1.56a1.172 1.172 0 00-.844 1.126v.12a.376.376 0 10.751 0v-.12c0-.187.125-.35.31-.406a2.395 2.395 0 001.695-2.28 2.36 2.36 0 00-.706-1.674z" fill="#918F8F"/></svg>