<svg width="24" height="24" fill="none" xmlns="http://www.w3.org/2000/svg"><path d="M15.5 12H17V3.5A1.5 1.5 0 0015.5 2h-9A1.5 1.5 0 005 3.5V12h1.5v-.368A2.5 2.5 0 017.714 9.49l.97-.582a3 3 0 114.633 0l.97.582a2.5 2.5 0 011.213 2.143V12zm-1 0v-.368a1.5 1.5 0 00-.728-1.286l-1.259-.755c-.444.26-.961.409-1.513.409a2.986 2.986 0 01-1.513-.409l-1.259.755a1.5 1.5 0 00-.728 1.286V12h7zm2.5 1H5v5.5A1.5 1.5 0 006.5 20h9a1.5 1.5 0 001.5-1.5V13zm.958-9.958A2.5 2.5 0 0120 5.5v15a2.5 2.5 0 01-2.5 2.5h-9a2.5 2.5 0 01-2.458-2.042A2.5 2.5 0 014 18.5v-15A2.5 2.5 0 016.5 1h9a2.5 2.5 0 012.458 2.042zM7.085 21A1.5 1.5 0 008.5 22h9a1.5 1.5 0 001.5-1.5v-15a1.5 1.5 0 00-1-1.415V18.5a2.5 2.5 0 01-2.5 2.5H7.085zM11 9a2 2 0 100-4 2 2 0 000 4zm-3.5 7a.5.5 0 010-1h7a.5.5 0 010 1h-7zm0 2a.5.5 0 010-1h5a.5.5 0 010 1h-5z" fill="#918F8F"/></svg>