<svg width="24" height="24" fill="none" xmlns="http://www.w3.org/2000/svg"><path d="M11.5 21H3a1 1 0 01-1-1V4a1 1 0 011-1h16a1 1 0 011 1v8" stroke="#918F8F"/><path d="M11.257 11.35l-.22.449.324.158.252-.257-.356-.35zm5.757-5.354a.5.5 0 00-.504-.496l-4.5.04a.5.5 0 00.008 1l4-.035.035 4a.5.5 0 001-.01l-.039-4.499zM8.5 10l.22-.449-.321-.157-.253.253L8.5 10zm3.113 1.7l5.258-5.35-.714-.7-5.257 5.349.713.7zm-6.26 2.154l3.5-3.5-.707-.707-3.5 3.5.708.707zm2.927-3.405l2.757 1.35.44-.899L8.72 9.551l-.44.898z" fill="#918F8F"/><path d="M14.485 14.814l2.5-1.504a1 1 0 011.03 0l2.5 1.504a1 1 0 01.485.857v2.658a1 1 0 01-.485.857l-2.5 1.504a1 1 0 01-1.03 0l-2.5-1.504A1 1 0 0114 18.33v-2.658a1 1 0 01.485-.857z" stroke="#918F8F"/><circle cx="17.5" cy="17" r="1.5" fill="#918F8F"/><path d="M5 17h6" stroke="#918F8F"/></svg>