<svg width="24" height="24" fill="none" xmlns="http://www.w3.org/2000/svg"><path d="M17.825 12.578v.9a.143.143 0 00.142.142h1.713v1h-1.713a.141.141 0 00-.142.142v.9a.143.143 0 00.142.142h1.713v.996h-1.713a.144.144 0 00-.142.144v.9a.143.143 0 00.142.142h1.713v1.365h-3.23V8.998l3.23 2.656v.783h-1.713a.141.141 0 00-.142.141zM6.922 11.24H4.32v1.2h1.097a.141.141 0 01.144.142v.9a.144.144 0 01-.144.141H4.32v1.001h1.097a.141.141 0 01.144.142v.9a.144.144 0 01-.144.141H4.32v.994h1.097a.143.143 0 01.133.089.144.144 0 01.011.055v.9a.144.144 0 01-.144.142H4.32v1.365h2.602V11.24zm8.568 8.115H7.882V5.122a.48.48 0 01.48-.48h6.653a.48.48 0 01.48.48v14.232h-.005zm-4.493-4.222a.283.283 0 00-.286-.283h-1.11a.283.283 0 00-.286.283v1.118a.286.286 0 00.285.286h1.116a.286.286 0 00.286-.286l-.005-1.118zm0-2.774a.286.286 0 00-.286-.286h-1.11a.285.285 0 00-.286.286v1.116a.286.286 0 00.285.285h1.116a.286.286 0 00.286-.285l-.005-1.116zm0-2.777a.286.286 0 00-.286-.286h-1.11a.286.286 0 00-.286.286V10.7a.286.286 0 00.285.286h1.116a.286.286 0 00.286-.286l-.005-1.118zm0-2.777a.283.283 0 00-.286-.283h-1.11a.283.283 0 00-.286.283V7.92a.286.286 0 00.285.288h1.116a.286.286 0 00.281-.288V6.804zm3.067 8.328a.285.285 0 00-.285-.283H12.66a.283.283 0 00-.285.283v1.118a.286.286 0 00.285.286h1.119a.286.286 0 00.285-.286v-1.118zm0-2.774a.286.286 0 00-.285-.286H12.66a.285.285 0 00-.285.286v1.116a.286.286 0 00.285.285h1.119a.286.286 0 00.285-.285v-1.116zm0-2.777a.286.286 0 00-.285-.286H12.66a.285.285 0 00-.285.286V10.7a.286.286 0 00.285.286h1.119a.288.288 0 00.285-.286V9.581zm0-2.777a.285.285 0 00-.285-.283H12.66a.283.283 0 00-.285.283V7.92a.285.285 0 00.285.286h1.119a.286.286 0 00.285-.286V6.804z" fill="#918F8F"/></svg>