<svg width="24" height="24" fill="none" xmlns="http://www.w3.org/2000/svg"><path d="M20.235 15.429V12h-7.647V9.714h4.883a1 1 0 001-1V5a1 1 0 00-1-1H6.529a1 1 0 00-1 1v3.714a1 1 0 001 1h4.883V12H3.765v3.429H3a1 1 0 00-1 1V19a1 1 0 001 1h2.706a1 1 0 001-1v-2.571a1 1 0 00-1-1H4.94v-2.286h6.47v2.286h-.764a1 1 0 00-1 1V19a1 1 0 001 1h2.706a1 1 0 001-1v-2.571a1 1 0 00-1-1h-.765v-2.286h6.47v2.286h-.764a1 1 0 00-1 1V19a1 1 0 001 1H21a1 1 0 001-1v-2.571a1 1 0 00-1-1h-.765zM5.53 16.57v2.286H3.176V16.57H5.53zm7.648 0v2.286h-2.354V16.57h2.354zm-6.471-8V5.143h10.588V8.57H6.706zm14.117 10.286h-2.352V16.57h2.352v2.286z" fill="#918F8F"/></svg>