<svg width="24" height="24" fill="none" xmlns="http://www.w3.org/2000/svg"><g clip-path="url(#clip0_1083_12550)" fill="#918F8F"><path d="M23.617 0H.383A.383.383 0 000 .383v23.234c0 .212.171.383.383.383h23.234a.383.383 0 00.383-.383V.383A.383.383 0 0023.617 0zm-.383 23.234H.766V.766h22.468v22.468z"/><path d="M21.626 1.532H1.906a.379.379 0 00-.374.383v1.532a.38.38 0 00.375.383h19.719A.379.379 0 0022 3.447V1.915a.379.379 0 00-.374-.383zm-.375 1.532H2.281v-.766h18.97v.766zm.834 13.361H1.915a.383.383 0 00-.383.383v5.277c0 .212.171.383.383.383h20.17a.383.383 0 00.383-.383v-5.277a.383.383 0 00-.383-.383zm-.383 5.277H2.298v-4.51h19.404v4.51zM18.085 4.596h-5.702a.383.383 0 00-.383.383v5.702c0 .211.171.383.383.383h5.702a.383.383 0 00.383-.383V4.979a.383.383 0 00-.383-.383zm-.925.766l-1.926 1.926-1.926-1.926h3.852zm-4.394.541l1.926 1.927-1.926 1.926V5.903zm.542 4.395l1.926-1.927 1.926 1.927h-3.852zm4.394-.542L15.776 7.83l1.926-1.927v3.853zm.383 2.074h-5.702a.383.383 0 100 .766h5.702a.383.383 0 100-.766zm-10.468 0H1.915a.383.383 0 000 .766h5.702a.383.383 0 000-.766zm10.468 1.532h-5.702a.383.383 0 100 .766h5.702a.383.383 0 100-.766zm-10.468 0H1.915a.383.383 0 100 .766h5.702a.383.383 0 000-.766zm7.625 1.532h-2.859a.383.383 0 100 .765h2.86a.383.383 0 100-.765zm-10.468 0h-2.86a.383.383 0 100 .765h2.86a.383.383 0 100-.765zM7.617 4.596H1.915a.383.383 0 00-.383.383v5.702c0 .211.171.383.383.383h5.702A.383.383 0 008 10.68V4.979a.383.383 0 00-.383-.383zm-.925.766L4.766 7.288 2.839 5.362h3.853zm-4.394.541L4.224 7.83 2.298 9.756V5.903zm.541 4.395L4.766 8.37l1.926 1.927H2.84zm4.395-.542L5.307 7.83l1.927-1.927v3.853z"/></g><defs><clipPath id="clip0_1083_12550"><path fill="#fff" d="M0 0h24v24H0z"/></clipPath></defs></svg>