<svg width="24" height="24" fill="none" xmlns="http://www.w3.org/2000/svg"><path d="M23.297 3.586a2.27 2.27 0 00-.653-1.663.6.6 0 10-.849.849c.2.2.307.482.302.794a1.133 1.133 0 01-.302.77c-.382.382-4.187 3.723-7.159 6.322l-.728-.728c2.17-2.482 4.862-5.552 5.915-6.717l.24.24a.6.6 0 10.848-.85l-.68-.68a.6.6 0 00-.848 0c-.366.365-2.6 2.902-4.615 5.202a7.025 7.025 0 00-2.127-2.068c-1.258-.792-2.725-1.193-4.36-1.193-.36 0-.716.023-1.058.067a.6.6 0 00.156 1.19c.29-.038.594-.057.902-.057 2.49 0 4.578 1.116 5.661 3.004l-2.298 2.63c-.747.102-1.305.407-1.698.932-.366.488-.526 1.07-.696 1.687-.205.744-.416 1.512-1.02 2.116a.6.6 0 00.425 1.024c1.615 0 2.894-.344 3.804-1.023.82-.612 1.308-1.48 1.423-2.523 1.546-1.35 8.207-7.172 8.762-7.726.405-.405.643-.988.653-1.599zM13.73 11.45l-.524.457-.547-.548.457-.523.614.614zm-1.99 3.022c-.472.353-1.1.588-1.875.703.264-.53.412-1.069.541-1.54.278-1.01.447-1.518 1.133-1.699l1.108 1.108a2.315 2.315 0 01-.907 1.428zM5.35 5.699c.087 0 .176-.02.26-.06l.164-.076a.6.6 0 00-.485-1.097c-.067.03-.135.06-.2.092a.6.6 0 00.26 1.14z" fill="#918F8F"/><path d="M9.685 17.124a.6.6 0 00-.606.593c-.026 2.307-.374 3.336-2.37 3.336-1.118 0-2.291-.818-3.22-2.245-1.022-1.573-1.586-3.615-1.586-5.75 0-2.771.837-5.078 2.357-6.494a.6.6 0 00-.818-.878c-.895.834-1.588 1.918-2.059 3.221-.451 1.249-.68 2.646-.68 4.151 0 2.365.633 4.64 1.781 6.405 1.154 1.773 2.694 2.79 4.226 2.79 1.465 0 2.486-.516 3.035-1.533.471-.873.522-2 .534-2.99a.6.6 0 00-.594-.606zm2.953-8.886a2.001 2.001 0 00-1.999-1.999A2.001 2.001 0 008.64 8.238c0 1.102.897 1.999 2 1.999a2.001 2.001 0 001.998-2zm-2.798 0a.8.8 0 111.6.002.8.8 0 01-1.6-.002z" fill="#918F8F"/><path d="M5.875 10.955a2.001 2.001 0 001.999-1.999 2.001 2.001 0 00-2-1.998 2.001 2.001 0 00-1.998 1.998c0 1.103.897 2 1.999 2zm0-2.797a.8.8 0 010 1.597.8.8 0 010-1.597zm.468 5.392a2.001 2.001 0 00-2-2 2.001 2.001 0 00-1.998 2 2 2 0 001.999 1.998 2.001 2.001 0 001.999-1.999zm-2 .798a.8.8 0 010-1.598.8.8 0 010 1.598zm2.101 5.877a2.001 2.001 0 001.999-1.998 2.001 2.001 0 00-2-2 2.001 2.001 0 00-1.998 2 2 2 0 001.999 1.998zm0-2.798a.8.8 0 010 1.598.8.8 0 010-1.598z" fill="#918F8F"/></svg>