<svg width="24" height="24" fill="none" xmlns="http://www.w3.org/2000/svg"><path d="M6.626 4.363L4.362 6.627l.85.848 1.132-1.131.565.565-1.131 1.132 1.131 1.13 1.131-1.13.566.565-1.131 1.132 1.131 1.13 2.263-2.262-4.243-4.243zm10.4.348l-2.132 2.133 2.262 2.262 2.133-2.133a9.585 9.585 0 00-1.03-1.232 9.588 9.588 0 00-1.233-1.03zm-3.264 3.264l-8.486 8.486-.565 2.828 2.828-.566 8.486-8.485-2.263-2.263zm1.632 5.156l-2.263 2.263 1.131 1.131 1.132-1.131.565.565-1.131 1.132 1.131 1.13 1.131-1.13.566.565-1.131 1.132.848.85 2.264-2.265-4.243-4.242z" fill="#918F8F"/></svg>