<svg width="24" height="24" viewBox="0 0 24 24" fill="none" xmlns="http://www.w3.org/2000/svg">
<path d="M1 5.14286V20C1 20 4.3135 18.8571 6.5 18.8571C7.79905 18.8571 9.49592 19.2606 10.6594 19.588C11.3206 19.7741 12 19.2842 12 18.5973V5.90665C12 5.4557 11.698 5.06047 11.2638 4.93891C9.49222 4.44298 7.9757 4 6.5 4C4.82394 4 3.09524 4.57143 1 5.14286Z" stroke="#918F8F"/>
<path d="M12 5.90665V18.5973C12 19.2842 12.6794 19.7741 13.3406 19.588C14.5041 19.2606 16.2009 18.8571 17.5 18.8571C19.6865 18.8571 23 20 23 20V5.14286C20.9048 4.57143 19.1761 4 17.5 4C16.0243 4 14.5078 4.44298 12.7362 4.93891C12.302 5.06047 12 5.4557 12 5.90665Z" stroke="#918F8F"/>
<path d="M14 8C14 8 16.1332 7 17.5 7C18.8668 7 21 8 21 8" stroke="#918F8F" stroke-linecap="round"/>
<path d="M14 12C14 12 16.1332 11 17.5 11C18.8668 11 21 12 21 12" stroke="#918F8F" stroke-linecap="round"/>
<path d="M14 16C14 16 16.1332 15 17.5 15C18.8668 15 21 16 21 16" stroke="#918F8F" stroke-linecap="round"/>
</svg>
