<svg width="24" height="24" viewBox="0 0 24 24" fill="none" xmlns="http://www.w3.org/2000/svg">
<path fill-rule="evenodd" clip-rule="evenodd" d="M14.7253 7.30729C16.0947 8.19923 17 9.74389 17 11.5C17 14.2614 14.7614 16.5 12 16.5C9.23858 16.5 7 14.2614 7 11.5C7 8.73858 9.23858 6.5 12 6.5V5.5C8.68629 5.5 6 8.18629 6 11.5C6 14.8137 8.68629 17.5 12 17.5C15.3137 17.5 18 14.8137 18 11.5C18 9.39266 16.9136 7.53907 15.2703 6.46875L14.7253 7.30729ZM16.9055 3.95313C19.3704 5.55861 21 8.339 21 11.5C21 16.4706 16.9706 20.5 12 20.5C7.02944 20.5 3 16.4706 3 11.5C3 6.52944 7.02944 2.5 12 2.5V1.5C6.47715 1.5 2 5.97715 2 11.5C2 17.0228 6.47715 21.5 12 21.5C17.5228 21.5 22 17.0228 22 11.5C22 7.98777 20.1893 4.89846 17.4505 3.11459L16.9055 3.95313Z" fill="#918F8F"/>
<circle cx="2" cy="2" r="2" transform="matrix(-1 0 0 1 14 9.5)" fill="#918F8F"/>
<path d="M12 11.5V1.5" stroke="#918F8F"/>
</svg>
