<svg width="24" height="24" viewBox="0 0 24 24" fill="none" xmlns="http://www.w3.org/2000/svg">
<path d="M2.33482 12.4476C2.52092 12.5329 2.72172 12.6281 2.9311 12.7321C3.88154 13.204 5.06544 13.8841 5.83173 14.6735C6.60508 15.4702 7.25238 16.6866 7.69694 17.6611C7.79679 17.88 7.8877 18.0896 7.96875 18.2833C8.05409 18.0972 8.14928 17.8964 8.25326 17.687C8.72522 16.7366 9.40527 15.5527 10.1947 14.7864C10.9914 14.013 12.2078 13.3657 13.1823 12.9212C13.4012 12.8213 13.6108 12.7304 13.8045 12.6494C13.6184 12.564 13.4176 12.4688 13.2082 12.3649C12.2578 11.8929 11.0739 11.2129 10.3076 10.4234C9.53423 9.62674 8.88694 8.41033 8.44237 7.43584C8.34253 7.21697 8.25161 7.00737 8.17056 6.81363C8.08522 6.99974 7.99003 7.20053 7.88606 7.40991C7.41409 8.36035 6.73405 9.54425 5.94462 10.3105C5.14792 11.0839 3.93152 11.7312 2.95703 12.1758C2.73816 12.2756 2.52856 12.3665 2.33482 12.4476Z" stroke="#918F8F"/>
<path d="M23.457 5.03711C23.457 5.03711 21.7361 4.39322 20.9465 3.5798C20.1497 2.75891 19.5585 1.00005 19.5585 1.00005C19.5585 1.00005 18.9146 2.72096 18.1012 3.51054C17.2803 4.30737 15.5214 4.89859 15.5214 4.89859C15.5214 4.89859 17.2423 5.54249 18.0319 6.35591C18.8288 7.17679 19.42 8.93565 19.42 8.93565C19.42 8.93565 20.0639 7.21475 20.8773 6.42516C21.6982 5.62833 23.457 5.03711 23.457 5.03711Z" fill="#918F8F"/>
<path d="M22.9355 19.5156C22.9355 19.5156 21.2146 18.8717 20.4251 18.0583C19.6282 17.2374 19.037 15.4786 19.037 15.4786C19.037 15.4786 18.3931 17.1995 17.5797 17.9891C16.7588 18.7859 14.9999 19.3771 14.9999 19.3771C14.9999 19.3771 16.7208 20.021 17.5104 20.8344C18.3073 21.6553 18.8985 23.4142 18.8985 23.4142C18.8985 23.4142 19.5424 21.6933 20.3558 20.9037C21.1767 20.1068 22.9355 19.5156 22.9355 19.5156Z" fill="#918F8F"/>
</svg>
