<svg width="24" height="24" viewBox="0 0 24 24" fill="none" xmlns="http://www.w3.org/2000/svg">
<path fill-rule="evenodd" clip-rule="evenodd" d="M11.8006 2.50995C9.03227 2.46527 6.83705 3.56494 5.22216 5.88477C4.61329 6.8236 4.14282 7.79512 4.01827 8.8691C3.89389 9.94152 3.50492 10.8885 2.98846 11.8088C2.76911 12.1997 2.56616 12.6 2.36325 13.0002C2.29588 13.133 2.22851 13.2659 2.16055 13.3984C1.79783 14.1056 2.06239 14.7021 2.82598 14.8995C2.86304 14.9091 2.9002 14.9194 2.93745 14.9297C3.07552 14.9678 3.21471 15.0063 3.35433 15.0113C3.92208 15.0315 4.08714 15.3415 4.11379 15.8761C4.15917 16.7863 4.24665 17.6947 4.33408 18.6025C4.3475 18.7419 4.36092 18.8813 4.37419 19.0206C4.45624 19.8825 4.86768 20.1951 5.71643 20.0913C6.25997 20.0248 6.80446 19.9662 7.36478 19.9059C7.61607 19.8789 7.87054 19.8515 8.12954 19.8229C8.12954 20.0319 8.12989 20.2388 8.13025 20.4441C8.13113 20.957 8.132 21.4604 8.12726 21.9636C8.12482 22.222 8.15524 22.4726 8.47022 22.4669C8.77622 22.4613 8.81983 22.2067 8.81962 21.9528C8.81945 21.7489 8.81885 21.545 8.81825 21.3411C8.8166 20.7827 8.81495 20.2242 8.82222 19.6659C8.82812 19.2136 8.63766 19.0506 8.18645 19.1106C7.80259 19.1617 7.41712 19.2008 7.03167 19.2399C6.60916 19.2828 6.18667 19.3256 5.76634 19.3843C5.29279 19.4503 5.08454 19.3503 5.06384 18.8109C5.02929 17.9104 4.92894 17.0115 4.82881 16.1145C4.82231 16.0562 4.8158 15.998 4.80932 15.9397C4.66208 14.617 4.65141 14.6145 3.38332 14.3122L3.37264 14.3097C2.97028 14.2138 2.77203 14.1671 2.72051 14.0536C2.66953 13.9414 2.76223 13.764 2.94303 13.409C3.08379 13.1326 3.2312 12.8588 3.37862 12.5849C4.04316 11.3504 4.70794 10.1154 4.76586 8.64629C4.76657 8.62833 4.77096 8.61027 4.77553 8.59277C5.59106 5.47126 8.16716 3.29737 11.0979 3.22746C11.4968 3.21794 11.5174 3.31272 11.3877 3.64449C11.3 3.86871 11.1541 3.88963 10.974 3.91546C10.9584 3.9177 10.9425 3.91998 10.9263 3.92244C10.1612 4.03872 9.50105 4.38626 9.32758 5.17794C9.20537 5.7357 9.02756 6.04279 8.46523 6.25438C7.83454 6.49168 7.61324 7.26855 7.81241 7.97617C8.02862 8.74436 8.35728 8.98967 9.17092 8.98979C9.39725 8.98982 9.62363 8.9914 9.85002 8.99298C10.4004 8.99683 10.9508 9.00067 11.5005 8.98227C11.9057 8.96869 12.0919 9.03608 12.0085 9.51194C11.9213 10.009 12.1523 10.4026 12.6269 10.6026C13.0522 10.7817 13.4442 10.6838 13.7728 10.3666C13.9765 10.17 14.0563 9.91187 14.0809 9.63097C14.1138 9.25482 14.321 9.03145 14.6979 8.99501C15.0669 8.95933 15.3411 9.12077 15.4558 9.47444C15.5738 9.83822 15.4122 10.1262 15.0934 10.2923C13.7471 10.9936 13.6176 12.1994 13.7682 13.5108C13.8291 14.0421 14.2575 14.377 14.7836 14.3771C15.3029 14.3773 15.7257 14.0348 15.8019 13.5092C15.8432 13.2241 15.8363 12.9292 15.8238 12.64C15.8124 12.3776 15.8888 12.2026 16.128 12.0642C17.1681 11.4626 17.6405 10.5499 17.5548 9.34528C17.5534 9.32607 17.551 9.30658 17.5487 9.28705C17.5364 9.18574 17.5239 9.08329 17.6502 9.01304C18.0424 8.79491 18.5918 9.05585 18.6545 9.49638C18.9706 11.7189 18.428 13.7071 17.0087 15.4383C16.4484 16.1218 16.0931 16.8736 16.0835 17.7612C16.0728 18.7528 16.0753 19.7446 16.0779 20.7364C16.0788 21.1059 16.0797 21.4754 16.08 21.8449L16.08 21.8605C16.0801 22.1347 16.0801 22.4558 16.4398 22.4619C16.8043 22.4681 16.8039 22.1536 16.8036 21.8802C16.8036 21.8723 16.8036 21.8644 16.8036 21.8566C16.8035 21.5031 16.8075 21.1494 16.8116 20.7957C16.8207 19.9872 16.8299 19.1786 16.7908 18.3724C16.7392 17.3107 17.0702 16.452 17.7339 15.6311C19.0289 14.0294 19.5328 12.1503 19.4367 10.097C19.4312 9.9786 19.3999 9.85005 19.3688 9.72271C19.3071 9.46934 19.2466 9.22075 19.3924 9.06613C19.5464 8.903 19.8214 8.93529 20.0952 8.96744C20.2121 8.98117 20.3289 8.99488 20.4358 8.99332C21.2788 8.98105 21.5185 8.73905 21.4979 7.88416C21.4888 7.50905 21.3942 7.1589 21.124 6.8911C20.9389 6.70767 20.8881 6.53502 20.9388 6.26752C21.1948 4.91714 20.1074 3.74672 18.7272 3.88029C18.4914 3.9031 18.3242 3.86396 18.1433 3.70499C17.6884 3.30502 17.1388 3.09217 16.543 3.20315C16.1827 3.27025 15.9923 3.1678 15.7639 2.91506C14.8848 1.94248 13.6175 1.73115 12.4666 2.34851C12.2506 2.46435 12.0446 2.51389 11.8006 2.50995ZM18.4095 7.54437C18.4249 7.21496 18.5804 6.95922 18.8337 6.70651C19.1041 6.46001 19.4032 6.39407 19.7096 6.35314C20.2637 6.27912 20.3923 6.09114 20.2522 5.54763C20.1215 5.04035 19.5972 4.50847 19.0822 4.58455C18.4012 4.68514 17.924 4.4967 17.4161 4.06093C17.0712 3.76495 16.5407 3.75755 16.15 4.07012C15.8156 4.33762 15.7442 4.74704 15.886 5.16238C15.9376 5.31338 16.022 5.45894 16.1173 5.58759C16.2633 5.78468 16.3494 5.98735 16.1162 6.15174C15.9006 6.30376 15.7151 6.19633 15.5604 5.99967C15.0737 5.38114 14.9991 4.7037 15.3468 4.01666C15.4932 3.72745 15.4482 3.55679 15.2503 3.35738C14.6979 2.80097 14.033 2.56581 13.2746 2.75209C12.5438 2.93158 12.0856 3.43345 11.9576 4.18255C11.8893 4.58262 11.7193 4.69235 11.33 4.62212C10.7475 4.51705 10.2539 4.78561 10.0435 5.28214C9.87496 5.68004 9.88778 6.06094 10.2136 6.38521C10.58 6.74986 11.0403 6.76054 11.646 6.4233C11.9573 6.25004 12.2506 6.35902 12.2435 6.64798C12.239 6.82906 12.1093 6.93053 11.9828 7.02946L11.9756 7.03515C11.331 7.53967 10.4839 7.49473 9.74544 6.88854C9.4028 6.60726 9.07278 6.66278 8.75252 6.87198C8.41668 7.09136 8.39913 7.43979 8.48218 7.79691C8.56936 8.17184 8.79621 8.3022 9.19026 8.28796C10.0561 8.25666 10.9242 8.26265 11.7905 8.28559C12.1602 8.29538 12.4111 8.19949 12.6696 7.90485C13.859 6.54912 15.8406 6.59732 16.9702 7.99613C17.139 8.20516 17.298 8.28626 17.5552 8.28292C18.0962 8.27589 18.6373 8.27675 19.1784 8.27762C19.5584 8.27822 19.9385 8.27883 20.3185 8.2767C20.8043 8.27398 20.9174 8.10086 20.7511 7.6321C20.6062 7.22376 20.3227 7.04202 19.8829 7.04473C19.4387 7.04748 19.1578 7.20874 19.0751 7.66591C19.0354 7.88557 18.9136 8.04956 18.6719 8.00834C18.423 7.9659 18.3994 7.76083 18.4095 7.54437Z" fill="#918F8F"/>
</svg>
