<svg width="24" height="24" viewBox="0 0 24 24" fill="none" xmlns="http://www.w3.org/2000/svg">
<path fill-rule="evenodd" clip-rule="evenodd" d="M17.2281 10.2465L22.0414 2.52921L21.1929 2L16.0503 10.2454H15.1256H14.2375L12.9313 7.53507L12.5511 6.74616L12.065 7.47461L8.11041 13.4007L5.65346 10.4269L5.21744 9.89915L4.84736 10.4751L1.00049 16.4615L1.84177 17.0021L5.31856 11.5916L7.76769 14.5559L8.19588 15.0742L8.56905 14.515L12.4107 8.75814L13.128 10.2465H17.2281ZM16.6059 11.2443H13.6089L13.6094 11.2454H13.9235H15.1256H16.3277H16.6052L16.6059 11.2443Z" fill="#918F8F"/>
<circle cx="4" cy="4" r="3.5" transform="matrix(-1 0 0 1 19.4365 11.7651)" stroke="#918F8F"/>
<path d="M17.9365 18.2651L21.9365 21.7651" stroke="#918F8F"/>
</svg>
