<svg width="24" height="24" viewBox="0 0 24 24" fill="none" xmlns="http://www.w3.org/2000/svg">
<path d="M22.4216 8.61654H14.1001C13.7298 7.32697 13.0027 6.15125 11.9845 5.23958C10.4413 3.85766 8.44798 3.22321 6.37128 3.45275C3.04082 3.82114 0.377249 6.50956 0.0379215 9.84523C-0.147375 11.6661 0.350577 13.4664 1.4399 14.9143C2.48385 16.3018 3.98188 17.261 5.66816 17.6244L7.44214 19.3983C7.59106 19.5473 7.78878 19.6262 7.99048 19.6261C8.0907 19.6261 8.19186 19.6066 8.28852 19.5666C8.5798 19.446 8.7679 19.1643 8.7679 18.8491V17.6072C9.05961 17.5419 9.34376 17.4593 9.61971 17.3607V17.4099C9.61971 18.2802 10.3278 18.9883 11.198 18.9883H13.8483L15.2601 20.4001C15.3864 20.5264 15.554 20.5933 15.7249 20.5933C15.8099 20.5933 15.8956 20.5767 15.9775 20.5428C16.2244 20.4405 16.384 20.2018 16.384 19.9346V18.9883H22.4217C23.292 18.9883 24 18.2802 24 17.4099V10.1948C24 9.32459 23.2919 8.61654 22.4216 8.61654ZM8.32616 16.9295C8.14686 16.9615 8.01636 17.1174 8.01636 17.2995V18.8491C8.01636 18.8581 8.01636 18.8659 8.00089 18.8723C7.98542 18.8786 7.97998 18.8732 7.97356 18.8669L6.12017 17.0135C6.06763 16.961 6.00064 16.9251 5.92771 16.9107C4.3769 16.6025 2.99638 15.733 2.04046 14.4625C1.06523 13.1662 0.619545 11.5534 0.785576 9.9213C0.931873 8.48295 1.58311 7.11476 2.61928 6.06866C3.65563 5.02241 5.0174 4.35871 6.45388 4.19985C6.70381 4.17219 6.95206 4.1585 7.19849 4.1585C8.78722 4.1585 10.2868 4.72822 11.4831 5.79945C12.8463 7.02017 13.6281 8.76898 13.6281 10.5975C13.6282 13.7185 11.3984 16.3815 8.32616 16.9295ZM23.2484 17.41C23.2484 17.8659 22.8775 18.2367 22.4216 18.2367H16.0082C15.8006 18.2367 15.6324 18.405 15.6324 18.6125V19.7095L14.2697 18.3468C14.1992 18.2763 14.1036 18.2368 14.004 18.2368H11.1981C10.7422 18.2368 10.3714 17.8659 10.3714 17.41V17.0436C12.777 15.8612 14.3798 13.3941 14.3798 10.5976C14.3798 10.1826 14.3432 9.77154 14.2729 9.36813H22.4217C22.8775 9.36813 23.2484 9.73901 23.2484 10.1949V17.41H23.2484Z" fill="#918F8F"/>
<path d="M21.0839 11.5324C20.9372 11.3857 20.6993 11.3857 20.5525 11.5324L16.8098 15.2752L15.0722 13.5376C14.9254 13.3908 14.6875 13.3908 14.5407 13.5376C14.394 13.6843 14.394 13.9223 14.5407 14.069L16.544 16.0723C16.6174 16.1456 16.7136 16.1823 16.8097 16.1823C16.9059 16.1823 17.0021 16.1457 17.0755 16.0723L21.0839 12.0639C21.2307 11.9171 21.2307 11.6792 21.0839 11.5324Z" fill="#918F8F"/>
<path d="M7.19002 13.428C7.18988 13.428 7.18969 13.428 7.18951 13.428C6.98199 13.428 6.81348 13.5965 6.81348 13.804C6.81348 13.804 6.81348 13.8042 6.81348 13.8042C6.81348 13.8043 6.81348 13.8044 6.81348 13.8045C6.81348 14.012 6.98199 14.1805 7.18951 14.1805C7.18965 14.1805 7.18988 14.1805 7.19002 14.1805C7.39754 14.1805 7.56605 14.012 7.56605 13.8045C7.56605 13.8045 7.56605 13.8043 7.56605 13.8042C7.56605 13.8042 7.56605 13.8041 7.56605 13.804C7.56605 13.5965 7.39754 13.428 7.19002 13.428Z" fill="#918F8F"/>
<path d="M8.86369 7.72103C8.40844 7.26578 7.81383 7.01509 7.18936 7.01514C5.87715 7.01523 4.80957 8.08295 4.80957 9.39512C4.80957 9.60263 4.9778 9.77091 5.18537 9.77091C5.39288 9.77091 5.56116 9.60268 5.56116 9.39512C5.56116 8.49727 6.29161 7.76673 7.18946 7.76668C7.61316 7.76668 8.019 7.93913 8.33227 8.2524C8.64553 8.56566 8.81803 8.97155 8.81803 9.39526C8.81798 10.109 8.34103 10.7505 7.65825 10.9552C7.15313 11.1067 6.81385 11.5592 6.81385 12.0813V12.201C6.81385 12.4086 6.98208 12.5768 7.18964 12.5768C7.39716 12.5768 7.56544 12.4086 7.56544 12.201V12.0813C7.56544 11.8937 7.68952 11.7305 7.8742 11.6751C8.87241 11.3758 9.56962 10.4383 9.56967 9.3953C9.56962 8.77088 9.31894 8.17623 8.86369 7.72103Z" fill="#918F8F"/>
</svg>
