<svg width="24" height="24" viewBox="0 0 24 24" fill="none" xmlns="http://www.w3.org/2000/svg">
<path d="M15.5 12H17V3.5C17 2.67157 16.3284 2 15.5 2H6.5C5.67157 2 5 2.67157 5 3.5V12H6.5V11.6324C6.5 10.7542 6.96075 9.94046 7.71376 9.48865L8.68373 8.90667C8.25655 8.38833 8 7.72412 8 7C8 5.34315 9.34315 4 11 4C12.6569 4 14 5.34315 14 7C14 7.72412 13.7434 8.38833 13.3163 8.90667L14.2862 9.48865C15.0393 9.94046 15.5 10.7542 15.5 11.6324V12ZM14.5 12V11.6324C14.5 11.1055 14.2236 10.6172 13.7717 10.3461L12.5132 9.59099C12.0689 9.85098 11.5519 10 11 10C10.4481 10 9.93106 9.85098 9.48684 9.59099L8.22826 10.3461C7.77645 10.6172 7.5 11.1055 7.5 11.6324V12H14.5ZM17 13H5V18.5C5 19.3284 5.67157 20 6.5 20H15.5C16.3284 20 17 19.3284 17 18.5V13ZM17.9581 3.04188C19.12 3.25706 20 4.27577 20 5.5V20.5C20 21.8807 18.8807 23 17.5 23H8.5C7.27577 23 6.25706 22.12 6.04188 20.9581C4.87996 20.7429 4 19.7242 4 18.5V3.5C4 2.11929 5.11929 1 6.5 1H15.5C16.7242 1 17.7429 1.87996 17.9581 3.04188ZM7.08535 21C7.29127 21.5826 7.84689 22 8.5 22H17.5C18.3284 22 19 21.3284 19 20.5V5.5C19 4.84689 18.5826 4.29127 18 4.08535V18.5C18 19.8807 16.8807 21 15.5 21H7.08535ZM11 9C12.1046 9 13 8.10457 13 7C13 5.89543 12.1046 5 11 5C9.89543 5 9 5.89543 9 7C9 8.10457 9.89543 9 11 9ZM7.5 16C7.22386 16 7 15.7761 7 15.5C7 15.2239 7.22386 15 7.5 15H14.5C14.7761 15 15 15.2239 15 15.5C15 15.7761 14.7761 16 14.5 16H7.5ZM7.5 18C7.22386 18 7 17.7761 7 17.5C7 17.2239 7.22386 17 7.5 17H12.5C12.7761 17 13 17.2239 13 17.5C13 17.7761 12.7761 18 12.5 18H7.5Z" fill="#918F8F"/>
</svg>
