<svg width="24" height="24" viewBox="0 0 24 24" fill="none" xmlns="http://www.w3.org/2000/svg">
<path d="M13.7129 15.0023V19.289L17.5707 21.4312L21.4285 19.289V15.0023L17.5707 12.8601L13.7129 15.0023ZM19.7129 18.2812L17.5707 19.4718L15.4285 18.2812V16.0125L17.5707 14.8218L19.7129 16.0125V18.2812Z" fill="#918F8F"/>
<path d="M16.7249 17.284C16.743 17.3952 16.7827 17.5017 16.8419 17.5976C16.9012 17.6934 16.9787 17.7766 17.0701 17.8425C17.1614 17.9084 17.2649 17.9556 17.3745 17.9815C17.4842 18.0074 17.5978 18.0114 17.709 17.9934C17.8202 17.9753 17.9268 17.9356 18.0226 17.8764C18.1184 17.8172 18.2017 17.7396 18.2675 17.6483C18.3334 17.5569 18.3806 17.4534 18.4065 17.3438C18.4324 17.2342 18.4365 17.1205 18.4184 17.0093C18.382 16.7847 18.2579 16.5838 18.0733 16.4508C17.8888 16.3177 17.6589 16.2635 17.4343 16.2999C17.2098 16.3363 17.0089 16.4605 16.8758 16.645C16.7428 16.8296 16.6885 17.0594 16.7249 17.284Z" fill="#918F8F"/>
<path d="M3 3V21H12.8188V19.3624H4.63758V4.63758H19.3647V12H21V3H3Z" fill="#918F8F"/>
<path d="M16.2869 8.92734V10.2867H18.0002V6H13.7158V7.71328H15.0752L11.89 10.8961L9.31895 9.18281L5.39551 13.1086L6.60723 14.3203L9.53926 11.3883L12.1104 13.1039L16.2869 8.92734ZM6.0002 16.2867H12.0002V18H6.0002V16.2867Z" fill="#918F8F"/>
</svg>
