<svg width="24" height="24" viewBox="0 0 24 24" fill="none" xmlns="http://www.w3.org/2000/svg">
<path d="M11.5 21H3C2.44772 21 2 20.5523 2 20V4C2 3.44772 2.44772 3 3 3H19C19.5523 3 20 3.44772 20 4V12" stroke="#918F8F"/>
<path d="M11.2568 11.3495L11.037 11.7985L11.3608 11.957L11.6134 11.6999L11.2568 11.3495ZM17.014 5.99609C17.0116 5.71995 16.7858 5.49804 16.5097 5.50044L12.0098 5.53941C11.7337 5.5418 11.5118 5.76759 11.5142 6.04372C11.5166 6.31986 11.7424 6.54177 12.0185 6.53937L16.0183 6.50473L16.053 10.5046C16.0554 10.7807 16.2812 11.0026 16.5573 11.0002C16.8334 10.9978 17.0553 10.772 17.053 10.4959L17.014 5.99609ZM8.49998 10.0001L8.71979 9.55101L8.39899 9.394L8.14644 9.64655L8.49998 10.0001ZM11.6134 11.6999L16.8706 6.35089L16.1574 5.64994L10.9002 10.999L11.6134 11.6999ZM5.35355 13.8536L8.85353 10.3537L8.14644 9.64655L4.64645 13.1464L5.35355 13.8536ZM8.28018 10.4492L11.037 11.7985L11.4766 10.9004L8.71979 9.55101L8.28018 10.4492Z" fill="#918F8F"/>
<path d="M14.4846 14.8138L16.9846 13.31C17.3017 13.1193 17.6983 13.1193 18.0154 13.31L20.5154 14.8138C20.8161 14.9947 21 15.3199 21 15.6707V18.3293C21 18.6801 20.8161 19.0053 20.5154 19.1862L18.0154 20.69C17.6983 20.8807 17.3017 20.8807 16.9846 20.69L14.4846 19.1862C14.1839 19.0053 14 18.6801 14 18.3293V15.6707C14 15.3199 14.1839 14.9947 14.4846 14.8138Z" stroke="#918F8F"/>
<circle cx="17.5" cy="17" r="1.5" fill="#918F8F"/>
<path d="M5 17H11" stroke="#918F8F"/>
</svg>
