<svg width="24" height="24" viewBox="0 0 24 24" fill="none" xmlns="http://www.w3.org/2000/svg">
<path d="M17.8251 12.5784V13.4784C17.8257 13.5158 17.8408 13.5514 17.8673 13.5778C17.8937 13.6043 17.9294 13.6194 17.9667 13.62H19.6803V14.6208H17.9667C17.9292 14.6208 17.8931 14.6357 17.8666 14.6623C17.84 14.6888 17.8251 14.7248 17.8251 14.7624V15.6624C17.8257 15.6998 17.8408 15.7354 17.8673 15.7618C17.8937 15.7883 17.9294 15.8034 17.9667 15.804H19.6803V16.8H17.9667C17.9289 16.8006 17.8929 16.8161 17.8664 16.843C17.8399 16.87 17.8251 16.9062 17.8251 16.944V17.844C17.8257 17.8814 17.8408 17.917 17.8673 17.9434C17.8937 17.9699 17.9294 17.985 17.9667 17.9856H19.6803V19.3512H16.4499V8.9976L19.6803 11.6544V12.4368H17.9667C17.9292 12.4368 17.8931 12.4517 17.8666 12.4783C17.84 12.5048 17.8251 12.5408 17.8251 12.5784ZM6.92191 11.2392H4.32031V12.4392H5.41711C5.43591 12.4389 5.45458 12.4423 5.47204 12.4493C5.4895 12.4563 5.50539 12.4666 5.51879 12.4798C5.5322 12.493 5.54284 12.5087 5.55011 12.5261C5.55737 12.5434 5.56112 12.562 5.56111 12.5808V13.4808C5.56048 13.5186 5.54503 13.5546 5.5181 13.5811C5.49116 13.6076 5.45489 13.6224 5.41711 13.6224H4.32031V14.6232H5.41711C5.43591 14.6229 5.45458 14.6263 5.47204 14.6333C5.4895 14.6403 5.50539 14.6506 5.51879 14.6638C5.5322 14.677 5.54284 14.6927 5.55011 14.7101C5.55737 14.7274 5.56112 14.746 5.56111 14.7648V15.6648C5.56048 15.7026 5.54503 15.7386 5.5181 15.7651C5.49116 15.7916 5.45489 15.8064 5.41711 15.8064H4.32031V16.8H5.41711C5.43602 16.8 5.45475 16.8037 5.47222 16.811C5.48969 16.8182 5.50556 16.8288 5.51894 16.8422C5.53231 16.8555 5.54291 16.8714 5.55015 16.8889C5.55739 16.9064 5.56111 16.9251 5.56111 16.944V17.844C5.56048 17.8818 5.54503 17.9178 5.5181 17.9443C5.49116 17.9708 5.45489 17.9856 5.41711 17.9856H4.32031V19.3512H6.92191V11.2392ZM15.4899 19.3536H7.88191V5.1216C7.88191 4.9943 7.93248 4.87221 8.0225 4.78219C8.11252 4.69217 8.23461 4.6416 8.36191 4.6416H15.0147C15.142 4.6416 15.2641 4.69217 15.3541 4.78219C15.4441 4.87221 15.4947 4.9943 15.4947 5.1216V19.3536H15.4899ZM10.9971 15.132C10.9971 15.0946 10.9897 15.0576 10.9753 15.0231C10.9609 14.9886 10.9399 14.9572 10.9133 14.9309C10.8868 14.9046 10.8553 14.8838 10.8206 14.8697C10.786 14.8556 10.7489 14.8485 10.7115 14.8488H9.60031C9.56292 14.8485 9.52584 14.8556 9.4912 14.8697C9.45656 14.8838 9.42506 14.9046 9.39851 14.9309C9.37195 14.9572 9.35088 14.9886 9.3365 15.0231C9.32211 15.0576 9.31471 15.0946 9.31471 15.132V16.2504C9.31471 16.2879 9.3221 16.325 9.33645 16.3597C9.35081 16.3943 9.37184 16.4258 9.39836 16.4524C9.42488 16.4789 9.45637 16.4999 9.49102 16.5143C9.52567 16.5286 9.56281 16.536 9.60031 16.536H10.7163C10.7921 16.536 10.8647 16.5059 10.9183 16.4524C10.9718 16.3988 11.0019 16.3261 11.0019 16.2504L10.9971 15.132ZM10.9971 12.3576C10.9971 12.2819 10.967 12.2092 10.9135 12.1557C10.8599 12.1021 10.7873 12.072 10.7115 12.072H9.60031C9.52457 12.072 9.45192 12.1021 9.39836 12.1557C9.3448 12.2092 9.31471 12.2819 9.31471 12.3576V13.4736C9.31471 13.5493 9.3448 13.622 9.39836 13.6756C9.45192 13.7291 9.52457 13.7592 9.60031 13.7592H10.7163C10.7921 13.7592 10.8647 13.7291 10.9183 13.6756C10.9718 13.622 11.0019 13.5493 11.0019 13.4736L10.9971 12.3576ZM10.9971 9.5808C10.9971 9.50505 10.967 9.43241 10.9135 9.37885C10.8599 9.32529 10.7873 9.2952 10.7115 9.2952H9.60031C9.52457 9.2952 9.45192 9.32529 9.39836 9.37885C9.3448 9.43241 9.31471 9.50505 9.31471 9.5808V10.6992C9.31471 10.7749 9.3448 10.8476 9.39836 10.9012C9.45192 10.9547 9.52457 10.9848 9.60031 10.9848H10.7163C10.7921 10.9848 10.8647 10.9547 10.9183 10.9012C10.9718 10.8476 11.0019 10.7749 11.0019 10.6992L10.9971 9.5808ZM10.9971 6.804C10.9971 6.76661 10.9897 6.72959 10.9753 6.69507C10.9609 6.66055 10.9399 6.62922 10.9133 6.6029C10.8868 6.57657 10.8553 6.55576 10.8206 6.54167C10.786 6.52758 10.7489 6.52048 10.7115 6.5208H9.60031C9.56292 6.52048 9.52584 6.52758 9.4912 6.54167C9.45656 6.55576 9.42506 6.57657 9.39851 6.6029C9.37195 6.62922 9.35088 6.66055 9.3365 6.69507C9.32211 6.72959 9.31471 6.76661 9.31471 6.804V7.92C9.3144 7.95771 9.32155 7.99511 9.33576 8.03003C9.34997 8.06496 9.37096 8.09673 9.39751 8.1235C9.42406 8.15028 9.45565 8.17153 9.49046 8.18603C9.52527 8.20054 9.5626 8.208 9.60031 8.208H10.7163C10.7916 8.20674 10.8634 8.17576 10.916 8.12182C10.9686 8.06788 10.9978 7.99534 10.9971 7.92V6.804ZM14.0643 15.132C14.0637 15.0567 14.0333 14.9846 13.9798 14.9316C13.9263 14.8786 13.854 14.8488 13.7787 14.8488H12.6603C12.6229 14.8485 12.5858 14.8556 12.5512 14.8697C12.5166 14.8838 12.4851 14.9046 12.4585 14.9309C12.432 14.9572 12.4109 14.9886 12.3965 15.0231C12.3821 15.0576 12.3747 15.0946 12.3747 15.132V16.2504C12.3747 16.3261 12.4048 16.3988 12.4584 16.4524C12.5119 16.5059 12.5846 16.536 12.6603 16.536H13.7787C13.8545 16.536 13.9271 16.5059 13.9807 16.4524C14.0342 16.3988 14.0643 16.3261 14.0643 16.2504V15.132ZM14.0643 12.3576C14.0643 12.2819 14.0342 12.2092 13.9807 12.1557C13.9271 12.1021 13.8545 12.072 13.7787 12.072H12.6603C12.5846 12.072 12.5119 12.1021 12.4584 12.1557C12.4048 12.2092 12.3747 12.2819 12.3747 12.3576V13.4736C12.3747 13.5493 12.4048 13.622 12.4584 13.6756C12.5119 13.7291 12.5846 13.7592 12.6603 13.7592H13.7787C13.8545 13.7592 13.9271 13.7291 13.9807 13.6756C14.0342 13.622 14.0643 13.5493 14.0643 13.4736V12.3576ZM14.0643 9.5808C14.0643 9.50505 14.0342 9.43241 13.9807 9.37885C13.9271 9.32529 13.8545 9.2952 13.7787 9.2952H12.6603C12.5846 9.2952 12.5119 9.32529 12.4584 9.37885C12.4048 9.43241 12.3747 9.50505 12.3747 9.5808V10.6992C12.3747 10.7749 12.4048 10.8476 12.4584 10.9012C12.5119 10.9547 12.5846 10.9848 12.6603 10.9848H13.7787C13.8543 10.9842 13.9265 10.9539 13.98 10.9005C14.0334 10.847 14.0637 10.7748 14.0643 10.6992V9.5808ZM14.0643 6.804C14.0637 6.72867 14.0333 6.65664 13.9798 6.6036C13.9263 6.55056 13.854 6.5208 13.7787 6.5208H12.6603C12.6229 6.52048 12.5858 6.52758 12.5512 6.54167C12.5166 6.55576 12.4851 6.57657 12.4585 6.6029C12.432 6.62922 12.4109 6.66055 12.3965 6.69507C12.3821 6.72959 12.3747 6.76661 12.3747 6.804V7.92C12.3747 7.99575 12.4048 8.06839 12.4584 8.12195C12.5119 8.17551 12.5846 8.2056 12.6603 8.2056H13.7787C13.8545 8.2056 13.9271 8.17551 13.9807 8.12195C14.0342 8.06839 14.0643 7.99575 14.0643 7.92V6.804Z" fill="#918F8F"/>
</svg>
