<svg width="24" height="24" viewBox="0 0 24 24" fill="none" xmlns="http://www.w3.org/2000/svg">
<path d="M20.2353 15.4286V12H12.5882V9.71429H17.4706C18.0229 9.71429 18.4706 9.26657 18.4706 8.71429V5C18.4706 4.44772 18.0229 4 17.4706 4H6.52941C5.97713 4 5.52941 4.44772 5.52941 5V8.71428C5.52941 9.26657 5.97713 9.71429 6.52941 9.71429H11.4118V12H3.76471V15.4286H3C2.44772 15.4286 2 15.8763 2 16.4286V19C2 19.5523 2.44772 20 3 20H5.70588C6.25817 20 6.70588 19.5523 6.70588 19V16.4286C6.70588 15.8763 6.25817 15.4286 5.70588 15.4286H4.94118V13.1429H11.4118V15.4286H10.6471C10.0948 15.4286 9.64706 15.8763 9.64706 16.4286V19C9.64706 19.5523 10.0948 20 10.6471 20H13.3529C13.9052 20 14.3529 19.5523 14.3529 19V16.4286C14.3529 15.8763 13.9052 15.4286 13.3529 15.4286H12.5882V13.1429H19.0588V15.4286H18.2941C17.7418 15.4286 17.2941 15.8763 17.2941 16.4286V19C17.2941 19.5523 17.7418 20 18.2941 20H21C21.5523 20 22 19.5523 22 19V16.4286C22 15.8763 21.5523 15.4286 21 15.4286H20.2353ZM5.52941 16.5714V18.8571H3.17647V16.5714H5.52941ZM13.1765 16.5714V18.8571H10.8235V16.5714H13.1765ZM6.70588 8.57143V5.14286H17.2941V8.57143H6.70588ZM20.8235 18.8571H18.4706V16.5714H20.8235V18.8571Z" fill="#918F8F"/>
</svg>
