<svg width="24" height="24" viewBox="0 0 24 24" fill="none" xmlns="http://www.w3.org/2000/svg">
<path d="M20.2353 15.4286V12H12.5882V9.71429H18.4706V4H5.52941V9.71429H11.4118V12H3.76471V15.4286H2V20H6.70588V15.4286H4.94118V13.1429H11.4118V15.4286H9.64706V20H14.3529V15.4286H12.5882V13.1429H19.0588V15.4286H17.2941V20H22V15.4286H20.2353ZM5.52941 16.5714V18.8571H3.17647V16.5714H5.52941ZM13.1765 16.5714V18.8571H10.8235V16.5714H13.1765ZM6.70588 8.57143V5.14286H17.2941V8.57143H6.70588ZM20.8235 18.8571H18.4706V16.5714H20.8235V18.8571Z" fill="#918F8F"/>
</svg>
