<svg width="24" height="24" viewBox="0 0 24 24" fill="none" xmlns="http://www.w3.org/2000/svg">
<g clip-path="url(#clip0_1083_12550)">
<path d="M23.617 0H0.382969C0.171422 0 0 0.171422 0 0.382969V23.617C0 23.8286 0.171422 24 0.382969 24H23.617C23.8286 24 24 23.8286 24 23.617V0.382969C24 0.171422 23.8286 0 23.617 0ZM23.2341 23.2341H0.765938V0.765938H23.2341V23.2341Z" fill="#918F8F"/>
<path d="M21.6256 1.53198H1.90663C1.69981 1.53198 1.53223 1.7034 1.53223 1.91495V3.44687C1.53223 3.65842 1.69981 3.82984 1.90663 3.82984H21.6256C21.8324 3.82984 22 3.65842 22 3.44687V1.91495C22 1.7034 21.8324 1.53198 21.6256 1.53198ZM21.2512 3.0639H2.28103V2.29797H21.2512V3.0639H21.2512Z" fill="#918F8F"/>
<path d="M22.0849 16.4255H1.91471C1.70316 16.4255 1.53174 16.597 1.53174 16.8085V22.0851C1.53174 22.2966 1.70316 22.4681 1.91471 22.4681H22.0849C22.2965 22.4681 22.4679 22.2966 22.4679 22.0851V16.8085C22.4679 16.597 22.2965 16.4255 22.0849 16.4255ZM21.702 21.7021H2.29768V17.1915H21.7019V21.7021H21.702Z" fill="#918F8F"/>
<path d="M18.0851 4.5957H12.383C12.1714 4.5957 12 4.76712 12 4.97867V10.6808C12 10.8924 12.1714 11.0638 12.383 11.0638H18.0851C18.2967 11.0638 18.4681 10.8924 18.4681 10.6808V4.97867C18.4681 4.76712 18.2967 4.5957 18.0851 4.5957ZM17.1605 5.36164L15.234 7.28806L13.3076 5.36164H17.1605ZM12.7659 5.90328L14.6924 7.8297L12.7659 9.75613V5.90328ZM13.3076 10.2978L15.234 8.37139L17.1605 10.2978H13.3076ZM17.7022 9.75613L15.7757 7.8297L17.7022 5.90328V9.75613Z" fill="#918F8F"/>
<path d="M18.0851 11.8298H12.383C12.1714 11.8298 12 12.0013 12 12.2128C12 12.4243 12.1714 12.5958 12.383 12.5958H18.0851C18.2967 12.5958 18.4681 12.4243 18.4681 12.2128C18.4681 12.0013 18.2967 11.8298 18.0851 11.8298Z" fill="#918F8F"/>
<path d="M7.61686 11.8298H1.91471C1.70316 11.8298 1.53174 12.0013 1.53174 12.2128C1.53174 12.4243 1.70316 12.5958 1.91471 12.5958H7.61686C7.82841 12.5958 7.99983 12.4243 7.99983 12.2128C7.99983 12.0013 7.82841 11.8298 7.61686 11.8298Z" fill="#918F8F"/>
<path d="M18.0851 13.3618H12.383C12.1714 13.3618 12 13.5332 12 13.7448C12 13.9563 12.1714 14.1278 12.383 14.1278H18.0851C18.2967 14.1278 18.4681 13.9563 18.4681 13.7448C18.4681 13.5332 18.2967 13.3618 18.0851 13.3618Z" fill="#918F8F"/>
<path d="M7.61686 13.3618H1.91471C1.70316 13.3618 1.53174 13.5332 1.53174 13.7448C1.53174 13.9563 1.70316 14.1278 1.91471 14.1278H7.61686C7.82841 14.1278 7.99983 13.9563 7.99983 13.7448C7.99983 13.5332 7.82841 13.3618 7.61686 13.3618Z" fill="#918F8F"/>
<path d="M15.2425 14.8936H12.383C12.1714 14.8936 12 15.065 12 15.2765C12 15.4881 12.1714 15.6595 12.383 15.6595H15.2425C15.4541 15.6595 15.6255 15.4881 15.6255 15.2765C15.6255 15.065 15.4541 14.8936 15.2425 14.8936Z" fill="#918F8F"/>
<path d="M4.77427 14.8936H1.91471C1.70316 14.8936 1.53174 15.065 1.53174 15.2765C1.53174 15.4881 1.70316 15.6595 1.91471 15.6595H4.77427C4.98582 15.6595 5.15724 15.4881 5.15724 15.2765C5.15724 15.065 4.98586 14.8936 4.77427 14.8936Z" fill="#918F8F"/>
<path d="M7.61686 4.5957H1.91471C1.70316 4.5957 1.53174 4.76712 1.53174 4.97867V10.6808C1.53174 10.8924 1.70316 11.0638 1.91471 11.0638H7.61686C7.82841 11.0638 7.99983 10.8924 7.99983 10.6808V4.97867C7.99983 4.76712 7.82841 4.5957 7.61686 4.5957ZM6.69221 5.36164L4.76579 7.28806L2.83936 5.36164H6.69221ZM2.29768 5.90333L4.2241 7.8297L2.29768 9.75617V5.90333ZM2.83932 10.2978L4.76574 8.37139L6.69221 10.2978H2.83932ZM7.23389 9.75613L5.30747 7.8297L7.23389 5.90328V9.75613Z" fill="#918F8F"/>
</g>
<defs>
<clipPath id="clip0_1083_12550">
<rect width="24" height="24" fill="white"/>
</clipPath>
</defs>
</svg>
