<svg width="24" height="24" viewBox="0 0 24 24" fill="none" xmlns="http://www.w3.org/2000/svg">
<path d="M23.2968 3.58642C23.3076 2.94583 23.0756 2.35516 22.6437 1.92328C22.4094 1.68898 22.0295 1.68898 21.7952 1.92331C21.5609 2.15764 21.5608 2.53753 21.7952 2.77183C21.9951 2.97169 22.1022 3.25384 22.0971 3.56635C22.0921 3.86449 21.9792 4.15237 21.7952 4.33642C21.4134 4.71817 17.6081 8.059 14.6361 10.6584L13.9077 9.9301C16.0773 7.44769 18.7698 4.37818 19.8229 3.21268L20.0625 3.45229C20.2968 3.68662 20.6767 3.68665 20.911 3.45235C21.1453 3.21805 21.1454 2.83816 20.9111 2.60383L20.2306 1.92334C20.1181 1.81081 19.9655 1.74757 19.8064 1.74757H19.8063C19.6472 1.74757 19.4946 1.81078 19.3821 1.92328C19.017 2.28838 16.7835 4.82503 14.7683 7.12471C14.2264 6.30442 13.5025 5.59876 12.6415 5.05708C11.383 4.26535 9.91582 3.86392 8.28061 3.86392C7.92088 3.86392 7.56499 3.8866 7.2229 3.93139C6.89431 3.97441 6.66283 4.27561 6.70582 4.6042C6.74884 4.93276 7.05001 5.16424 7.3786 5.12125C7.66927 5.08321 7.97275 5.06392 8.28058 5.06392C10.7704 5.06392 12.8589 6.18016 13.942 8.0683C12.9314 9.22315 12.063 10.2178 11.6443 10.6978C10.8968 10.7996 10.339 11.1055 9.94567 11.6301C9.58 12.1178 9.41971 12.7003 9.25003 13.317C9.04543 14.0606 8.83387 14.8295 8.23054 15.4328C8.05891 15.6044 8.00758 15.8624 8.10046 16.0866C8.19334 16.3109 8.41213 16.4571 8.6548 16.4571C10.2696 16.4571 11.5494 16.1129 12.4588 15.4341C13.2783 14.8224 13.7668 13.9538 13.8823 12.9109C15.4283 11.5607 22.0892 5.7394 22.6437 5.18494C23.0486 4.78009 23.2866 4.19743 23.2968 3.58642ZM13.7307 11.4501C13.5504 11.6076 13.3756 11.7603 13.2075 11.907L12.6597 11.3592C12.8063 11.1912 12.959 11.0163 13.1165 10.8359L13.7307 11.4501ZM11.741 14.4724C11.269 14.8248 10.6409 15.0595 9.86569 15.1745C10.1295 14.6441 10.2775 14.1063 10.407 13.6353C10.6851 12.6247 10.8545 12.1174 11.5398 11.9364L12.6477 13.0443C12.5257 13.634 12.2222 14.1132 11.741 14.4724Z" fill="#918F8F"/>
<path d="M5.34961 5.69888C5.437 5.69888 5.52577 5.67968 5.60974 5.63921C5.66359 5.61323 5.71891 5.5877 5.77411 5.56337C6.07726 5.42954 6.21454 5.07529 6.08071 4.77214C5.94688 4.46902 5.59267 4.33175 5.28949 4.46555C5.22208 4.49531 5.15449 4.52651 5.08858 4.55828C4.79011 4.70219 4.6648 5.06084 4.80868 5.35931C4.91212 5.57381 5.12641 5.69888 5.34961 5.69888Z" fill="#918F8F"/>
<path d="M9.68534 17.1238C9.35429 17.1206 9.08237 17.3857 9.07862 17.717C9.05272 20.0236 8.70452 21.0526 6.70969 21.0526C5.59141 21.0526 4.41781 20.2346 3.48986 18.8083C2.46665 17.2354 1.90313 15.1934 1.90313 13.0584C1.90313 10.2866 2.74012 7.9803 4.25996 6.56442C4.50241 6.33855 4.51586 5.95887 4.28999 5.71641C4.06412 5.47395 3.68444 5.46051 3.44198 5.68638C2.54675 6.52041 1.85407 7.60407 1.38317 8.90727C0.931905 10.156 0.703125 11.5527 0.703125 13.0584C0.703125 15.423 1.33562 17.6974 2.48401 19.4626C3.63755 21.2358 5.17777 22.2527 6.70969 22.2527C8.17493 22.2527 9.19615 21.7371 9.74494 20.7202C10.2161 19.8471 10.2674 18.7192 10.2785 17.7305C10.2822 17.3992 10.0167 17.1275 9.68534 17.1238Z" fill="#918F8F"/>
<path d="M12.6381 8.23794C12.6381 7.13574 11.7413 6.23901 10.6391 6.23901C9.5369 6.23901 8.64014 7.13574 8.64014 8.23794C8.64014 9.34017 9.5369 10.2369 10.6391 10.2369C11.7413 10.2369 12.6381 9.34017 12.6381 8.23794ZM9.84014 8.23794C9.84014 7.79739 10.1985 7.43901 10.6391 7.43901C11.0797 7.43901 11.4381 7.79739 11.4381 8.23794C11.4381 8.67852 11.0797 9.03693 10.6391 9.03693C10.1985 9.0369 9.84014 8.67849 9.84014 8.23794Z" fill="#918F8F"/>
<path d="M5.87494 10.9554C6.97717 10.9554 7.8739 10.0587 7.8739 8.95648C7.8739 7.85425 6.97717 6.95752 5.87494 6.95752C4.77271 6.95752 3.87598 7.85425 3.87598 8.95648C3.87598 10.0587 4.77271 10.9554 5.87494 10.9554ZM5.87494 8.15752C6.31549 8.15752 6.6739 8.51593 6.6739 8.95648C6.6739 9.39703 6.31549 9.75541 5.87494 9.75541C5.43439 9.75541 5.07598 9.39703 5.07598 8.95648C5.07598 8.51593 5.43442 8.15752 5.87494 8.15752Z" fill="#918F8F"/>
<path d="M6.34265 13.5493C6.34265 12.4471 5.44592 11.5503 4.34369 11.5503C3.24146 11.5503 2.34473 12.4471 2.34473 13.5493C2.34473 14.6515 3.24146 15.5482 4.34369 15.5482C5.44592 15.5482 6.34265 14.6515 6.34265 13.5493ZM4.34369 14.3482C3.90314 14.3482 3.54473 13.9898 3.54473 13.5493C3.54473 13.1087 3.90314 12.7503 4.34369 12.7503C4.78424 12.7503 5.14265 13.1087 5.14265 13.5493C5.14265 13.9898 4.78424 14.3482 4.34369 14.3482Z" fill="#918F8F"/>
<path d="M6.44375 20.2254C7.54598 20.2254 8.44274 19.3287 8.44274 18.2265C8.44274 17.1243 7.54598 16.2275 6.44375 16.2275C5.34155 16.2275 4.44482 17.1243 4.44482 18.2265C4.44482 19.3287 5.34155 20.2254 6.44375 20.2254ZM6.44375 17.4275C6.88433 17.4275 7.24274 17.7859 7.24274 18.2265C7.24274 18.667 6.88433 19.0254 6.44375 19.0254C6.00323 19.0254 5.64482 18.667 5.64482 18.2265C5.64482 17.7859 6.00323 17.4275 6.44375 17.4275Z" fill="#918F8F"/>
</svg>
