<svg width="24" height="24" viewBox="0 0 24 24" fill="none" xmlns="http://www.w3.org/2000/svg">
<g clip-path="url(#clip0_1083_12724)">
<path d="M16 10.0275C18.25 10.2762 20 12.1838 20 14.5V23.5C20 23.7762 19.7761 24 19.5 24C19.2239 24 19 23.7762 19 23.5V14.5C19 12.7368 17.6961 11.2781 16 11.0355L16 17C16 18.1046 15.1046 19 14 19C13.1071 19 12.3182 18.7604 11.6484 18.2806C11.3937 18.0982 11.0882 18.0001 10.7745 18.0001C10.5173 18 10.3108 18.1489 10.2372 18.3697C10.1262 18.7025 10.1928 19.0268 10.3989 19.2587L13.8737 23.1679C14.0572 23.3742 14.0386 23.6903 13.8322 23.8737C13.6258 24.0572 13.3098 24.0386 13.1263 23.8322L10.5999 20.99C10.5676 20.9966 10.5342 21 10.5 21H6.5C5.11929 21 4 19.8807 4 18.5V2.5C4 1.11929 5.11929 5.9748e-07 6.5 5.9748e-07L13.5 0C14.8807 4.12474e-07 16 1.11929 16 2.5L16 10.0275ZM9.65152 19.9231C9.20775 19.4239 9.06443 18.7256 9.27566 18.0919C9.49818 17.4244 10.0869 17 10.7504 17C11.2971 17.0001 11.8062 17.1636 12.2307 17.4677C12.726 17.8224 13.3107 18 14 18C14.5523 18 15 17.5523 15 17L15 2.5C15 1.67157 14.3284 1 13.5 1L6.5 1C5.67157 1 5 1.67157 5 2.5V18.5C5 19.3285 5.67157 20 6.5 20H9.71991L9.65152 19.9231ZM8.5 3.00004C8.22386 3.00004 8 2.77618 8 2.50004C8 2.2239 8.22386 2.00004 8.5 2.00004H11.5C11.7761 2.00004 12 2.2239 12 2.50004C12 2.77618 11.7761 3.00004 11.5 3.00004H8.5ZM11.5 7.00004C12.958 7.00004 14 7.86834 14 9.50004C14 11.0595 12.7213 12.5209 10.2481 13.9342C10.0944 14.022 9.90565 14.022 9.75193 13.9342C7.27873 12.5209 6 11.0595 6 9.50004C6 7.86834 7.04197 7.00004 8.5 7.00004C9.10077 7.00004 9.60746 7.21611 10 7.62753C10.3925 7.21611 10.8992 7.00004 11.5 7.00004ZM13 9.50004C13 8.46507 12.442 8.00004 11.5 8.00004C11.0297 8.00004 10.6987 8.22077 10.4472 8.72365C10.263 9.09217 9.73705 9.09217 9.55279 8.72365C9.30135 8.22077 8.97025 8.00004 8.5 8.00004C7.55803 8.00004 7 8.46507 7 9.50004C7 10.5647 7.97503 11.7199 10 12.9215C12.025 11.7199 13 10.5647 13 9.50004Z" fill="#918F8F"/>
</g>
<defs>
<clipPath id="clip0_1083_12724">
<rect width="24" height="24" fill="white"/>
</clipPath>
</defs>
</svg>
