<svg width="24" height="24" viewBox="0 0 24 24" fill="none" xmlns="http://www.w3.org/2000/svg">
<path d="M6.62637 4.36255L4.3623 6.62661L5.2123 7.47505L6.34355 6.3438L6.90918 6.90942L5.77793 8.04067L6.90918 9.17192L8.04043 8.04067L8.60605 8.6063L7.4748 9.73755L8.60605 10.8688L10.8686 8.6063L6.62637 4.36255ZM17.0264 4.71099L14.8936 6.8438L17.1561 9.1063L19.2889 6.97349C18.9824 6.54256 18.6457 6.12717 18.2592 5.74067C17.8727 5.35419 17.4573 5.01749 17.0264 4.71099ZM13.7623 7.97505L5.27637 16.461L4.71074 19.2891L7.53887 18.7235L16.0248 10.2375L13.7623 7.97505ZM15.3936 13.1313L13.1311 15.3938L14.2623 16.525L15.3936 15.3938L15.9592 15.9594L14.8279 17.0907L15.9592 18.2219L17.0904 17.0907L17.6561 17.6563L16.5248 18.7875L17.3732 19.6375L19.6373 17.3735L15.3936 13.1313Z" fill="#918F8F"/>
</svg>
